<svg width="16" height="16" viewBox="0 0 16 16" fill="none" xmlns="http://www.w3.org/2000/svg">
<path d="M12.844 9.0107C12.9984 8.89127 13.1233 8.73808 13.2092 8.56289C13.2952 8.38771 13.3398 8.19516 13.3398 8.00003C13.3398 7.8049 13.2952 7.61236 13.2092 7.43717C13.1233 7.26198 12.9984 7.1088 12.844 6.98936C10.8455 5.44348 8.61416 4.22475 6.23337 3.3787L5.79804 3.22403C4.96604 2.9287 4.0867 3.49136 3.97404 4.3507C3.65937 6.77341 3.65937 9.22665 3.97404 11.6494C4.08737 12.5087 4.96604 13.0714 5.79804 12.776L6.23337 12.6214C8.61416 11.7753 10.8455 10.5566 12.844 9.0107Z" fill="currentColor"/>
</svg>
