<svg width="20" height="20" viewBox="0 0 20 20" fill="none" xmlns="http://www.w3.org/2000/svg">
<g clip-path="url(#clip0_77_21)">
<path fill-rule="evenodd" clip-rule="evenodd" d="M13.8217 2.5C14.2637 2.50009 14.6875 2.67575 15 2.98833L17.0117 5C17.3242 5.31249 17.4999 5.73634 17.5 6.17833V15.8333C17.5 16.2754 17.3244 16.6993 17.0118 17.0118C16.6993 17.3244 16.2754 17.5 15.8333 17.5H4.16667C3.72464 17.5 3.30072 17.3244 2.98816 17.0118C2.67559 16.6993 2.5 16.2754 2.5 15.8333V6.17833C2.50009 5.73634 2.67575 5.31249 2.98833 5L5 2.98833C5.31249 2.67575 5.73634 2.50009 6.17833 2.5H13.8217ZM15.8333 7.5H4.16667V15.8333H15.8333V7.5ZM10 8.33333C10.221 8.33333 10.433 8.42113 10.5893 8.57741C10.7455 8.73369 10.8333 8.94565 10.8333 9.16667V11.8217L11.1783 11.4767C11.2552 11.3971 11.3472 11.3336 11.4488 11.2899C11.5505 11.2462 11.6598 11.2233 11.7705 11.2223C11.8811 11.2213 11.9909 11.2424 12.0933 11.2843C12.1957 11.3262 12.2888 11.3881 12.367 11.4663C12.4452 11.5446 12.5071 11.6376 12.549 11.74C12.5909 11.8425 12.612 11.9522 12.611 12.0628C12.6101 12.1735 12.5871 12.2828 12.5434 12.3845C12.4997 12.4862 12.4363 12.5781 12.3567 12.655L10.59 14.4225C10.5126 14.5 10.4207 14.5614 10.3195 14.6034C10.2184 14.6453 10.1099 14.6669 10.0004 14.6669C9.8909 14.6669 9.78246 14.6453 9.6813 14.6034C9.58013 14.5614 9.48823 14.5 9.41083 14.4225L7.64333 12.655C7.56374 12.5781 7.50026 12.4862 7.45658 12.3845C7.41291 12.2828 7.38992 12.1735 7.38896 12.0628C7.388 11.9522 7.40908 11.8425 7.45098 11.74C7.49288 11.6376 7.55476 11.5446 7.633 11.4663C7.71125 11.3881 7.80429 11.3262 7.9067 11.2843C8.00912 11.2424 8.11885 11.2213 8.2295 11.2223C8.34015 11.2233 8.4495 11.2462 8.55117 11.2899C8.65284 11.3336 8.74479 11.3971 8.82167 11.4767L9.16667 11.8217V9.16667C9.16667 8.94565 9.25446 8.73369 9.41074 8.57741C9.56702 8.42113 9.77899 8.33333 10 8.33333ZM13.8217 4.16667H6.17833L4.51167 5.83333H15.4883L13.8217 4.16667Z" fill="currentColor"/>
</g>
<defs>
<clipPath id="clip0_77_21">
<rect width="20" height="20" fill="white"/>
</clipPath>
</defs>
</svg>
