<svg width="20" height="20" viewBox="0 0 20 20" fill="none" xmlns="http://www.w3.org/2000/svg">
<path d="M10 1.66667C4.16667 1.66667 0.833333 7.5 0.833333 7.5L7.75 14.4167C8.11667 13.975 8.6 13.6417 9.16667 13.475L6.525 10.8333L10 7.35833L13.475 10.8333L10.8333 13.475C11.4 13.6417 11.8917 13.975 12.25 14.4167L19.1667 7.5C19.1667 7.5 15.8333 1.66667 10 1.66667ZM14.6583 9.65833L10 5L5.34167 9.65833L2.99167 7.3C4.125 5.83333 6.575 3.33333 10 3.33333C13.4 3.33333 15.8583 5.83333 17 7.30833L14.6583 9.65833ZM10.8333 10.8333C10.8333 11.2917 10.4583 11.6667 10 11.6667C9.54167 11.6667 9.16667 11.2917 9.16667 10.8333C9.16667 10.375 9.54167 10 10 10C10.4583 10 10.8333 10.375 10.8333 10.8333ZM11.25 16.6667L10 17.5L8.75 16.6667V15H11.25V16.6667Z" fill="black"/>
</svg>
