<svg width="20" height="20" viewBox="0 0 20 20" fill="none" xmlns="http://www.w3.org/2000/svg">
<path d="M4.09375 9.4375V11.5625C4.09375 15.9375 15.875 15.9375 15.875 11.5625V9.4375H4.09375Z" fill="#596066"/>
<path d="M19.375 7.9375L10 12.1563L0.625 7.9375L10 3.71875L19.375 7.9375Z" fill="#3E4347"/>
<path d="M9.96875 7.75015C8.53125 8.4064 5.40625 9.81265 5.28125 9.87515C5.21875 9.9064 5.15625 9.9689 5.15625 10.0626V12.1876C5.15625 12.4376 5.46875 12.4376 5.46875 12.1876V10.2189C6.875 9.5939 9.90625 8.2189 10.0312 8.1564C10.2188 8.06265 10.1563 7.68765 9.96875 7.75015Z" fill="#FFCE31"/>
<path d="M5.3125 12.9062C5.64042 12.9062 5.90625 12.5705 5.90625 12.1563C5.90625 11.742 5.64042 11.4062 5.3125 11.4062C4.98458 11.4062 4.71875 11.742 4.71875 12.1563C4.71875 12.5705 4.98458 12.9062 5.3125 12.9062Z" fill="#FFCE31"/>
<path d="M5.3125 16.2188C5.625 16.2188 5.90625 16.0625 5.90625 15.8437V12.1562H4.71875V15.8437C4.71875 16.0625 5 16.2188 5.3125 16.2188Z" fill="#FFCE31"/>
<path d="M5.71875 12.25C5.6875 12.25 5.6875 12.2812 5.65625 12.2812V16.1562C5.6875 16.1562 5.6875 16.125 5.71875 16.125V12.25ZM5.46875 12.3437H5.40625V16.2188H5.46875V12.3437ZM5.21875 12.3437H5.15625V16.2188H5.21875V12.3437ZM4.96875 12.2812C4.9375 12.2812 4.9375 12.25 4.90625 12.25V16.1562C4.9375 16.1562 4.9375 16.1875 4.96875 16.1875V12.2812Z" fill="#594640"/>
</svg>
