<svg width="24" height="24" viewBox="0 0 24 24" fill="none" xmlns="http://www.w3.org/2000/svg">
<g clip-path="url(#clip0_162_13)">
<path d="M11.25 14.6246C11.25 14.0312 11.0741 13.4512 10.7444 12.9579C10.4148 12.4645 9.94623 12.08 9.39805 11.8529C8.84988 11.6259 8.24668 11.5665 7.66473 11.6822C7.08279 11.798 6.54824 12.0837 6.12868 12.5033C5.70913 12.9228 5.4234 13.4574 5.30765 14.0393C5.19189 14.6212 5.2513 15.2244 5.47836 15.7726C5.70543 16.3208 6.08995 16.7893 6.58329 17.119C7.07664 17.4486 7.65666 17.6246 8.25 17.6246C9.04565 17.6246 9.80871 17.3085 10.3713 16.7459C10.9339 16.1833 11.25 15.4202 11.25 14.6246ZM7.5 14.6246C7.5 14.4762 7.54399 14.3312 7.6264 14.2079C7.70881 14.0846 7.82595 13.9884 7.96299 13.9317C8.10004 13.8749 8.25084 13.86 8.39632 13.889C8.54181 13.9179 8.67544 13.9894 8.78033 14.0942C8.88522 14.1991 8.95665 14.3328 8.98559 14.4783C9.01453 14.6237 8.99968 14.7745 8.94291 14.9116C8.88615 15.0486 8.79002 15.1658 8.66668 15.2482C8.54334 15.3306 8.39834 15.3746 8.25 15.3746C8.05109 15.3746 7.86033 15.2956 7.71967 15.1549C7.57902 15.0143 7.5 14.8235 7.5 14.6246ZM22.875 10.8746H21.3131C21.0273 8.30133 19.7666 5.93533 17.7902 4.26293C15.8137 2.59054 13.2717 1.73883 10.6867 1.88288C8.10159 2.02694 5.66993 3.15581 3.89153 5.03745C2.11313 6.91908 1.12312 9.41051 1.125 11.9996V14.2496C1.12699 16.1386 1.87829 17.9498 3.21406 19.2855C4.54983 20.6213 6.36095 21.3726 8.25 21.3746H12C13.8891 21.3726 15.7002 20.6213 17.0359 19.2855C18.3717 17.9498 19.123 16.1386 19.125 14.2496V13.1246H22.875C23.1734 13.1246 23.4595 13.006 23.6705 12.7951C23.8815 12.5841 24 12.2979 24 11.9996C24 11.7012 23.8815 11.4151 23.6705 11.2041C23.4595 10.9931 23.1734 10.8746 22.875 10.8746ZM3.375 14.2496V11.9996C3.37309 10.0073 4.12636 8.08836 5.48303 6.62939C6.83971 5.17043 8.69894 4.27989 10.6861 4.13723C12.6732 3.99457 14.6406 4.61038 16.1918 5.86059C17.743 7.1108 18.7626 8.90246 19.0453 10.8746H14.25C13.9516 10.8746 13.6655 10.9931 13.4545 11.2041C13.2435 11.4151 13.125 11.7012 13.125 11.9996V14.2496C13.125 15.5425 12.6114 16.7825 11.6971 17.6967C10.7829 18.611 9.54293 19.1246 8.25 19.1246C6.95707 19.1246 5.7171 18.611 4.80286 17.6967C3.88862 16.7825 3.375 15.5425 3.375 14.2496ZM16.875 14.2496C16.8739 15.2403 16.5713 16.2073 16.0074 17.0219C15.4436 17.8366 14.6453 18.4604 13.7184 18.8105C14.7899 17.5324 15.3764 15.9174 15.375 14.2496V13.1246H16.875V14.2496Z" fill="currentColor"/>
</g>
<defs>
<clipPath id="clip0_162_13">
<rect width="24" height="24" fill="white"/>
</clipPath>
</defs>
</svg>
