<svg width="24" height="24" viewBox="0 0 24 24" fill="none" xmlns="http://www.w3.org/2000/svg">
<path d="M6.60039 8.3998C6.44126 8.3998 6.28865 8.46302 6.17613 8.57554C6.0636 8.68806 6.00039 8.84067 6.00039 8.9998C6.00039 9.15893 6.0636 9.31155 6.17613 9.42407C6.28865 9.53659 6.44126 9.5998 6.60039 9.5998H11.4004C11.5595 9.5998 11.7121 9.53659 11.8247 9.42407C11.9372 9.31155 12.0004 9.15893 12.0004 8.9998C12.0004 8.84067 11.9372 8.68806 11.8247 8.57554C11.7121 8.46302 11.5595 8.3998 11.4004 8.3998H6.60039ZM6.60039 11.3998C6.44126 11.3998 6.28865 11.463 6.17613 11.5755C6.0636 11.6881 6.00039 11.8407 6.00039 11.9998C6.00039 12.1589 6.0636 12.3115 6.17613 12.4241C6.28865 12.5366 6.44126 12.5998 6.60039 12.5998H13.8004C13.9595 12.5998 14.1121 12.5366 14.2247 12.4241C14.3372 12.3115 14.4004 12.1589 14.4004 11.9998C14.4004 11.8407 14.3372 11.6881 14.2247 11.5755C14.1121 11.463 13.9595 11.3998 13.8004 11.3998H6.60039ZM6.00039 14.9998C6.00039 14.8407 6.0636 14.6881 6.17613 14.5755C6.28865 14.463 6.44126 14.3998 6.60039 14.3998H12.0004C12.1595 14.3998 12.3121 14.463 12.4247 14.5755C12.5372 14.6881 12.6004 14.8407 12.6004 14.9998C12.6004 15.1589 12.5372 15.3115 12.4247 15.4241C12.3121 15.5366 12.1595 15.5998 12.0004 15.5998H6.60039C6.44126 15.5998 6.28865 15.5366 6.17613 15.4241C6.0636 15.3115 6.00039 15.1589 6.00039 14.9998ZM5.40039 4.7998C4.60474 4.7998 3.84168 5.11588 3.27907 5.67848C2.71646 6.24109 2.40039 7.00416 2.40039 7.7998V16.1998C2.40039 16.9955 2.71646 17.7585 3.27907 18.3211C3.84168 18.8837 4.60474 19.1998 5.40039 19.1998H12.4996C12.3315 18.8142 12.2044 18.412 12.1204 17.9998H5.40039C4.923 17.9998 4.46516 17.8102 4.1276 17.4726C3.79003 17.135 3.60039 16.6772 3.60039 16.1998V7.7998C3.60039 7.32242 3.79003 6.86458 4.1276 6.52701C4.46516 6.18945 4.923 5.9998 5.40039 5.9998H18.6004C19.0778 5.9998 19.5356 6.18945 19.8732 6.52701C20.2107 6.86458 20.4004 7.32242 20.4004 7.7998V11.7166C21.1276 12.367 21.5884 13.309 21.6004 14.359V7.7998C21.6004 7.00416 21.2843 6.24109 20.7217 5.67848C20.1591 5.11588 19.396 4.7998 18.6004 4.7998H5.40039ZM15.6004 14.3998C15.6004 13.7633 15.8532 13.1528 16.3033 12.7027C16.7534 12.2527 17.3639 11.9998 18.0004 11.9998C18.6369 11.9998 19.2474 12.2527 19.6974 12.7027C20.1475 13.1528 20.4004 13.7633 20.4004 14.3998V16.7998C20.4004 17.4363 20.1475 18.0468 19.6974 18.4969C19.2474 18.9469 18.6369 19.1998 18.0004 19.1998C17.3639 19.1998 16.7534 18.9469 16.3033 18.4969C15.8532 18.0468 15.6004 17.4363 15.6004 16.7998V14.3998ZM14.4364 17.3158C14.4266 17.2367 14.4012 17.1604 14.3616 17.0913C14.322 17.0222 14.269 16.9616 14.2058 16.9132C14.1425 16.8647 14.0702 16.8294 13.9932 16.8092C13.9161 16.7889 13.8358 16.7843 13.7569 16.7954C13.678 16.8066 13.6022 16.8333 13.5337 16.8741C13.4653 16.9149 13.4057 16.9689 13.3583 17.033C13.311 17.0971 13.2769 17.1699 13.258 17.2473C13.2391 17.3247 13.2359 17.4051 13.2484 17.4838C13.3979 18.5248 13.8852 19.4879 14.6353 20.225C15.3855 20.9621 16.3569 21.4325 17.4004 21.5638V22.1998C17.4004 22.3589 17.4636 22.5115 17.5761 22.6241C17.6886 22.7366 17.8413 22.7998 18.0004 22.7998C18.1595 22.7998 18.3121 22.7366 18.4247 22.6241C18.5372 22.5115 18.6004 22.3589 18.6004 22.1998V21.5626C19.6435 21.4314 20.6147 20.9614 21.3648 20.2248C22.1149 19.4881 22.6024 18.5256 22.7524 17.485C22.7636 17.407 22.7593 17.3276 22.7398 17.2512C22.7203 17.1749 22.6859 17.1031 22.6387 17.04C22.5914 16.977 22.5322 16.9238 22.4644 16.8836C22.3966 16.8434 22.3216 16.817 22.2436 16.8058C22.1656 16.7946 22.0861 16.7989 22.0098 16.8184C21.9334 16.8379 21.8617 16.8723 21.7986 16.9195C21.7355 16.9668 21.6824 17.026 21.6422 17.0938C21.602 17.1616 21.5756 17.2366 21.5644 17.3146C21.4421 18.1727 21.0143 18.9579 20.3596 19.526C19.7049 20.094 18.8672 20.4068 18.0004 20.4068C17.1336 20.4068 16.2959 20.094 15.6412 19.526C14.9865 18.9579 14.5587 18.1727 14.4364 17.3146" fill="currentColor"/>
</svg>
