<svg width="24" height="24" viewBox="0 0 24 24" fill="none" xmlns="http://www.w3.org/2000/svg">
<path d="M5.75295 22.005C5.15622 22.005 4.58392 21.7679 4.16196 21.346C3.74001 20.924 3.50295 20.3517 3.50295 19.755L3.50195 5.75C3.50195 5.15326 3.73901 4.58097 4.16096 4.15901C4.58292 3.73705 5.15522 3.5 5.75195 3.5L6.49895 3.499V2.75C6.49899 2.56861 6.56477 2.39339 6.6841 2.25678C6.80342 2.12016 6.96822 2.03143 7.14795 2.007L7.24995 2C7.43119 2.00001 7.6063 2.06564 7.74288 2.18477C7.87947 2.30389 7.9683 2.46845 7.99295 2.648L7.99995 2.75L7.99895 3.499H11V2.75C11 2.56861 11.0658 2.39339 11.1851 2.25678C11.3044 2.12016 11.4692 2.03143 11.649 2.007L11.75 2C11.9314 1.99977 12.1067 2.06529 12.2435 2.18444C12.3803 2.30359 12.4693 2.46828 12.494 2.648L12.501 2.75L12.5 3.499H15.498V2.75C15.498 2.56861 15.5638 2.39339 15.6831 2.25678C15.8024 2.12016 15.9672 2.03143 16.147 2.007L16.25 2C16.4312 2.00001 16.6063 2.06564 16.7429 2.18477C16.8795 2.30389 16.9683 2.46845 16.993 2.648L17 2.75L16.999 3.499H17.749C18.3457 3.499 18.918 3.73605 19.3399 4.15801C19.7619 4.57997 19.999 5.15226 19.999 5.749V11.336C19.5303 11.1144 19.0183 10.9996 18.5 11L18.499 5.75C18.499 5.65143 18.4795 5.55382 18.4418 5.46276C18.404 5.3717 18.3487 5.28897 18.2789 5.21932C18.2092 5.14966 18.1264 5.09444 18.0353 5.0568C17.9442 5.01917 17.8465 4.99987 17.748 5H5.74195C5.54478 5.00263 5.35657 5.08281 5.21808 5.22318C5.07958 5.36354 5.00194 5.55281 5.00195 5.75L5.00295 19.754C5.00295 20.169 5.33895 20.504 5.75295 20.504H13.053C13.141 21.03 13.343 21.542 13.668 22.004L5.75295 22.005ZM7.24995 16H11.248C11.438 16.0001 11.6209 16.0722 11.7597 16.202C11.8986 16.3317 11.983 16.5093 11.996 16.6989C12.0089 16.8885 11.9494 17.0759 11.8295 17.2233C11.7096 17.3707 11.5382 17.4671 11.35 17.493L11.248 17.5H7.24995C7.05993 17.4999 6.87701 17.4278 6.73816 17.298C6.59931 17.1683 6.51488 16.9907 6.50193 16.8011C6.48898 16.6115 6.54847 16.4241 6.66839 16.2767C6.7883 16.1293 6.9597 16.0329 7.14795 16.007L7.24995 16ZM7.24995 8H16.248C16.438 8.00006 16.6209 8.07225 16.7597 8.20197C16.8986 8.3317 16.983 8.5093 16.996 8.69888C17.0089 8.88846 16.9494 9.07589 16.8295 9.2233C16.7096 9.37071 16.5382 9.4671 16.35 9.493L16.248 9.5H7.24995C7.05993 9.49994 6.87701 9.42776 6.73816 9.29803C6.59931 9.1683 6.51488 8.9907 6.50193 8.80112C6.48898 8.61154 6.54847 8.42411 6.66839 8.2767C6.7883 8.12929 6.9597 8.0329 7.14795 8.007L7.24995 8ZM18.5 17C19.163 17 19.7989 16.7366 20.2677 16.2678C20.7366 15.7989 21 15.163 21 14.5C21 13.837 20.7366 13.2011 20.2677 12.7322C19.7989 12.2634 19.163 12 18.5 12C17.8369 12 17.201 12.2634 16.7322 12.7322C16.2633 13.2011 16 13.837 16 14.5C16 15.163 16.2633 15.7989 16.7322 16.2678C17.201 16.7366 17.8369 17 18.5 17ZM18.5 23C21.714 23 23 21.431 23 19.875V19.772C23 18.793 22.206 18 21.227 18H15.773C14.793 18 14 18.793 14 19.772V19.875C14 21.437 15.286 23 18.5 23ZM7.24995 12C7.05104 12 6.86028 12.079 6.71962 12.2197C6.57897 12.3603 6.49995 12.5511 6.49995 12.75C6.49995 12.9489 6.57897 13.1397 6.71962 13.2803C6.86028 13.421 7.05104 13.5 7.24995 13.5H13.25C13.4489 13.5 13.6396 13.421 13.7803 13.2803C13.9209 13.1397 14 12.9489 14 12.75C14 12.5511 13.9209 12.3603 13.7803 12.2197C13.6396 12.079 13.4489 12 13.25 12H7.24995Z" fill="currentColor"/>
</svg>
