<svg width="24" height="24" viewBox="0 0 24 24" fill="none" xmlns="http://www.w3.org/2000/svg">
<g clip-path="url(#clip0_161_4)">
<path d="M14.3998 5.6C14.3998 6.23652 14.1469 6.84697 13.6968 7.29706C13.2467 7.74714 12.6363 8 11.9998 8C11.3632 8 10.7528 7.74714 10.3027 7.29706C9.85261 6.84697 9.59976 6.23652 9.59976 5.6C9.59976 4.96348 9.85261 4.35303 10.3027 3.90294C10.7528 3.45286 11.3632 3.2 11.9998 3.2C12.6363 3.2 13.2467 3.45286 13.6968 3.90294C14.1469 4.35303 14.3998 4.96348 14.3998 5.6ZM9.59976 0.448C9.59976 0.329183 9.55256 0.215232 9.46854 0.131216C9.38452 0.0471999 9.27057 0 9.15176 0C8.99559 0.0428784 8.8561 0.132146 8.75176 0.256L4.79976 7.344C4.79071 7.41304 4.79071 7.48296 4.79976 7.552C4.79976 7.8 4.99976 8 5.24776 8C5.40972 7.96012 5.55517 7.87062 5.66376 7.744L9.59976 0.656C9.60881 0.586962 9.60881 0.517038 9.59976 0.448ZM19.0398 22.72L14.3998 10.224C14.363 10.0476 14.2665 9.88918 14.1266 9.77553C13.9868 9.66187 13.812 9.59989 13.6318 9.6H5.63176C5.41958 9.6 5.2161 9.68429 5.06607 9.83431C4.91604 9.98434 4.83176 10.1878 4.83176 10.4C4.83176 10.6122 4.91604 10.8157 5.06607 10.9657C5.2161 11.1157 5.41958 11.2 5.63176 11.2H9.59976L11.9198 15.216L5.08776 22.592C4.99764 22.6656 4.92504 22.7584 4.87523 22.8635C4.82541 22.9687 4.79963 23.0836 4.79976 23.2C4.79976 23.4122 4.88404 23.6157 5.03407 23.7657C5.1841 23.9157 5.38758 24 5.59976 24C5.79526 23.9975 5.98309 23.9235 6.12776 23.792L13.2478 17.152L17.6638 23.552C17.7341 23.6771 17.8363 23.7815 17.9599 23.8545C18.0835 23.9276 18.2242 23.9667 18.3678 23.968C18.8158 23.968 19.1838 23.616 19.1998 23.168C19.1931 23.0059 19.1373 22.8497 19.0398 22.72Z" fill="currentColor"/>
</g>
<defs>
<clipPath id="clip0_161_4">
<rect width="24" height="24" fill="white"/>
</clipPath>
</defs>
</svg>
