<svg width="24" height="24" viewBox="0 0 24 24" fill="none" xmlns="http://www.w3.org/2000/svg">
<path d="M5.88328 7.34358C5.88025 7.41554 5.89187 7.48736 5.91743 7.55463C5.94298 7.62189 5.98193 7.68319 6.03188 7.73473C6.08183 7.78628 6.14172 7.827 6.20787 7.85438C6.27402 7.88176 6.34504 7.89522 6.41655 7.89394H8.24203C8.54739 7.89394 8.79078 7.64216 8.83061 7.3369C9.02976 5.87522 10.0255 4.81016 11.8001 4.81016C13.318 4.81016 14.7076 5.57442 14.7076 7.41266C14.7076 8.82754 13.88 9.47816 12.5723 10.4675C11.0832 11.557 9.90378 12.8293 9.98786 14.8948L9.9945 15.3783C9.99682 15.5245 10.0561 15.6639 10.1596 15.7665C10.2631 15.869 10.4025 15.9265 10.5477 15.9265H12.3422C12.4889 15.9265 12.6296 15.8678 12.7333 15.7633C12.8371 15.6589 12.8954 15.5172 12.8954 15.3694V15.1355C12.8954 13.5357 13.4994 13.07 15.1302 11.8244C16.4777 10.7928 17.8828 9.6475 17.8828 7.24332C17.8828 3.87656 15.0594 2.25 11.9682 2.25C9.16473 2.25 6.09349 3.56462 5.88328 7.34358ZM9.32847 20.1845C9.32847 21.3721 10.2689 22.25 11.5633 22.25C12.9109 22.25 13.838 21.3721 13.838 20.1845C13.838 18.9545 12.9086 18.09 11.5611 18.09C10.2689 18.09 9.32847 18.9545 9.32847 20.1845Z" fill="currentColor"/>
</svg>
