<svg width="24" height="24" viewBox="0 0 24 24" fill="none" xmlns="http://www.w3.org/2000/svg">
<path d="M11.23 6C9.57 6 8.01 6.66 6.87 7.73C6.54 6.73 5.61 6 4.5 6C3.83696 6 3.20107 6.26339 2.73223 6.73223C2.26339 7.20107 2 7.83696 2 8.5C2 9.16304 2.26339 9.79893 2.73223 10.2678C3.20107 10.7366 3.83696 11 4.5 11C4.71 11 4.91 10.97 5.11 10.92C5.06 11.17 5.02 11.43 5.01 11.7C4.96605 12.5707 5.11216 13.4405 5.43819 14.249C5.76423 15.0575 6.26236 15.7853 6.898 16.382C7.53363 16.9786 8.29153 17.4297 9.11905 17.7039C9.94656 17.9781 10.8239 18.0689 11.69 17.97C14.24 17.69 16.37 15.71 16.88 13.2C17.03 12.49 17.03 11.8 16.94 11.14C16.85 10.54 17.32 10.01 17.93 10.01H22V6H11.23ZM4.5 9C4.22 9 4 8.78 4 8.5C4 8.22 4.22 8 4.5 8C4.78 8 5 8.22 5 8.5C5 8.78 4.78 9 4.5 9ZM11 15C9.34 15 8 13.66 8 12C8 10.34 9.34 9 11 9C12.66 9 14 10.34 14 12C14 13.66 12.66 15 11 15Z" fill="currentColor"/>
<path d="M11 14C12.1046 14 13 13.1046 13 12C13 10.8954 12.1046 10 11 10C9.89543 10 9 10.8954 9 12C9 13.1046 9.89543 14 11 14Z" fill="currentColor"/>
</svg>
