<svg width="20" height="20" viewBox="0 0 20 20" fill="none" xmlns="http://www.w3.org/2000/svg">
<path fill-rule="evenodd" clip-rule="evenodd" d="M9.84806 6.24959L11.1731 4.92459L12.9493 3.14709C12.212 3.07031 11.4673 3.18212 10.7851 3.47202C10.1029 3.76192 9.50551 4.22041 9.04905 4.80446C8.59258 5.38851 8.292 6.07896 8.1755 6.81101C8.05901 7.54306 8.13043 8.29271 8.38306 8.98959L8.79056 10.1108L7.94681 10.9533L3.20056 15.7008C3.12578 15.7723 3.06604 15.858 3.02484 15.9528C2.98364 16.0477 2.96181 16.1498 2.96064 16.2532C2.95946 16.3567 2.97897 16.4593 3.018 16.555C3.05704 16.6508 3.11482 16.7378 3.18795 16.811C3.26108 16.8841 3.34808 16.9419 3.44386 16.9809C3.53963 17.0199 3.64224 17.0394 3.74566 17.0383C3.84907 17.0371 3.95121 17.0153 4.04607 16.9741C4.14093 16.9329 4.22661 16.8731 4.29806 16.7983L9.04556 12.0521L9.88806 11.2083L11.0093 11.6146C11.7062 11.8672 12.4558 11.9386 13.1879 11.8221C13.9199 11.7057 14.6104 11.4051 15.1944 10.9486C15.7785 10.4921 16.237 9.89476 16.5269 9.21254C16.8168 8.53032 16.9286 7.78562 16.8518 7.04834L15.0743 8.82709L13.7493 10.1496L12.4243 8.82459L11.1743 7.57459L9.84806 6.24959ZM17.5643 3.83709C18.3348 4.90285 18.7495 6.18449 18.7493 7.49959C18.7497 8.50376 18.5081 9.49323 18.0451 10.3842C17.582 11.2753 16.911 12.0416 16.089 12.6183C15.267 13.1951 14.3181 13.5653 13.3227 13.6976C12.3273 13.8299 11.3147 13.7204 10.3706 13.3783L5.62431 18.1246C5.37808 18.3708 5.08576 18.5661 4.76405 18.6994C4.44234 18.8327 4.09753 18.9012 3.74931 18.9012C3.40109 18.9012 3.05628 18.8327 2.73456 18.6994C2.41285 18.5661 2.12054 18.3708 1.87431 18.1246C1.37703 17.6273 1.09766 16.9529 1.09766 16.2496C1.09766 15.5463 1.37703 14.8719 1.87431 14.3746L6.62056 9.62834C6.16143 8.36264 6.1233 6.9825 6.51186 5.69338C6.90042 4.40426 7.69489 3.27508 8.777 2.47393C9.85912 1.67277 11.171 1.24248 12.5174 1.24711C13.8638 1.25173 15.1727 1.69103 16.2493 2.49959L14.9043 3.84459L13.8256 4.92334L12.4993 6.24959L13.7493 7.49959L15.0743 6.17459L16.1543 5.09459L17.4993 3.74959L17.5643 3.83709Z" fill="currentColor"/>
</svg>
