<svg width="24" height="24" viewBox="0 0 24 24" fill="none" xmlns="http://www.w3.org/2000/svg">
<rect x="6" y="6" width="12" height="12" fill="#FFE6E9"/>
<path fill-rule="evenodd" clip-rule="evenodd" d="M12 22.5C14.7848 22.5 17.4555 21.3938 19.4246 19.4246C21.3938 17.4555 22.5 14.7848 22.5 12C22.5 9.21523 21.3938 6.54451 19.4246 4.57538C17.4555 2.60625 14.7848 1.5 12 1.5C9.21523 1.5 6.54451 2.60625 4.57538 4.57538C2.60625 6.54451 1.5 9.21523 1.5 12C1.5 14.7848 2.60625 17.4555 4.57538 19.4246C6.54451 21.3938 9.21523 22.5 12 22.5ZM10.875 16.5C10.875 16.7984 10.9935 17.0845 11.2045 17.2955C11.4155 17.5065 11.7016 17.625 12 17.625C12.2984 17.625 12.5845 17.5065 12.7955 17.2955C13.0065 17.0845 13.125 16.7984 13.125 16.5V10.215L14.205 11.295C14.308 11.4055 14.4322 11.4942 14.5702 11.5557C14.7082 11.6172 14.8572 11.6502 15.0082 11.6529C15.1593 11.6556 15.3093 11.6278 15.4494 11.5712C15.5895 11.5146 15.7167 11.4304 15.8236 11.3236C15.9304 11.2167 16.0146 11.0895 16.0712 10.9494C16.1278 10.8093 16.1556 10.6593 16.1529 10.5082C16.1502 10.3572 16.1172 10.2082 16.0557 10.0702C15.9942 9.93219 15.9055 9.80799 15.795 9.705L12.795 6.705C12.5841 6.49432 12.2981 6.37599 12 6.37599C11.7019 6.37599 11.4159 6.49432 11.205 6.705L8.205 9.705C8.09447 9.80799 8.00582 9.93219 7.94433 10.0702C7.88284 10.2082 7.84978 10.3572 7.84711 10.5082C7.84445 10.6593 7.87223 10.8093 7.92882 10.9494C7.9854 11.0895 8.06961 11.2167 8.17644 11.3236C8.28327 11.4304 8.41052 11.5146 8.5506 11.5712C8.69069 11.6278 8.84073 11.6556 8.99178 11.6529C9.14284 11.6502 9.29181 11.6172 9.42981 11.5557C9.56781 11.4942 9.69201 11.4055 9.795 11.295L10.875 10.215V16.5Z" fill="#DC3545"/>
</svg>
