<svg width="24" height="24" viewBox="0 0 24 24" fill="none" xmlns="http://www.w3.org/2000/svg">
<rect x="6" y="6" width="12" height="12" fill="#EAFFEA"/>
<path fill-rule="evenodd" clip-rule="evenodd" d="M12 22.5C14.7848 22.5 17.4555 21.3938 19.4246 19.4246C21.3938 17.4555 22.5 14.7848 22.5 12C22.5 9.21523 21.3938 6.54451 19.4246 4.57538C17.4555 2.60625 14.7848 1.5 12 1.5C9.21523 1.5 6.54451 2.60625 4.57538 4.57538C2.60625 6.54451 1.5 9.21523 1.5 12C1.5 14.7848 2.60625 17.4555 4.57538 19.4246C6.54451 21.3938 9.21523 22.5 12 22.5ZM13.125 7.5C13.125 7.20163 13.0065 6.91548 12.7955 6.7045C12.5845 6.49353 12.2984 6.375 12 6.375C11.7016 6.375 11.4155 6.49353 11.2045 6.7045C10.9935 6.91548 10.875 7.20163 10.875 7.5V10.5V13.785L9.795 12.705C9.58174 12.5063 9.29967 12.3981 9.00822 12.4032C8.71676 12.4084 8.43869 12.5264 8.23257 12.7326C8.02645 12.9387 7.90838 13.2168 7.90324 13.5082C7.8981 13.7997 8.00628 14.0817 8.205 14.295L11.205 17.295C11.4159 17.5057 11.7019 17.624 12 17.624C12.2981 17.624 12.5841 17.5057 12.795 17.295L15.795 14.295C15.9055 14.192 15.9942 14.0678 16.0557 13.9298C16.1172 13.7918 16.1502 13.6428 16.1529 13.4918C16.1556 13.3407 16.1278 13.1907 16.0712 13.0506C16.0146 12.9105 15.9304 12.7833 15.8236 12.6764C15.7167 12.5696 15.5895 12.4854 15.4494 12.4288C15.3093 12.3722 15.1593 12.3444 15.0082 12.3471C14.8572 12.3498 14.7082 12.3828 14.5702 12.4443C14.4322 12.5058 14.308 12.5945 14.205 12.705L13.125 13.785V7.5Z" fill="#28A745"/>
</svg>
