<svg width="24" height="24" viewBox="0 0 24 24" fill="none" xmlns="http://www.w3.org/2000/svg">
<path d="M19.4637 5.5758C18.7757 4.8258 17.5347 4.7798 16.7077 5.6068L8.60767 13.7068C8.39767 13.9168 8.39767 14.1828 8.60767 14.3928C8.81767 14.6028 9.08367 14.6028 9.29367 14.3928L15.9937 7.6928C16.1823 7.51064 16.4349 7.40985 16.6971 7.41213C16.9593 7.4144 17.2101 7.51957 17.3955 7.70498C17.5809 7.89039 17.6861 8.1412 17.6883 8.4034C17.6906 8.6656 17.5898 8.9182 17.4077 9.1068L10.7077 15.8068C10.4793 16.0418 10.2062 16.2285 9.9044 16.3561C9.60261 16.4836 9.27831 16.5493 8.95067 16.5493C8.62304 16.5493 8.29873 16.4836 7.99694 16.3561C7.69515 16.2285 7.42201 16.0418 7.19367 15.8068C6.95871 15.5785 6.77194 15.3053 6.6444 15.0035C6.51686 14.7017 6.45114 14.3774 6.45114 14.0498C6.45114 13.7222 6.51686 13.3979 6.6444 13.0961C6.77194 12.7943 6.95871 12.5211 7.19367 12.2928L15.2937 4.1928C16.8607 2.6248 19.4087 2.5738 20.9237 4.2078C22.4757 5.7768 22.5207 8.3118 20.8937 9.8208L11.4077 19.3068C9.21767 21.4968 5.78367 21.4968 3.59367 19.3068C1.40367 17.1168 1.40367 13.6828 3.59367 11.4928L11.6937 3.3928C11.8823 3.21064 12.1349 3.10985 12.3971 3.11213C12.6593 3.1144 12.9101 3.21957 13.0955 3.40498C13.2809 3.59039 13.3861 3.8412 13.3883 4.1034C13.3906 4.36559 13.2898 4.6182 13.1077 4.8068L5.00767 12.9068C3.59767 14.3168 3.59767 16.4828 5.00767 17.8928C6.41767 19.3028 8.58367 19.3028 9.99367 17.8928L19.4937 8.3928L19.5247 8.3628C20.2747 7.6758 20.3207 6.4338 19.4937 5.6068L19.4637 5.5758Z" fill="black"/>
</svg>
