<svg width="20" height="21" viewBox="0 0 20 21" fill="none" xmlns="http://www.w3.org/2000/svg">
<g clip-path="url(#clip0_23_18)">
<path d="M10 20.4287C15.5228 20.4287 20 15.9516 20 10.4287C20 4.90586 15.5228 0.428711 10 0.428711C4.47715 0.428711 0 4.90586 0 10.4287C0 15.9516 4.47715 20.4287 10 20.4287Z" fill="#E1E8ED"/>
<path d="M17.6676 16.8432C15.9954 16.107 14.9998 13.7887 14.9998 10.4287C14.9998 7.06871 15.9954 4.75038 17.6676 4.01427C17.4194 3.72073 17.1545 3.44175 16.8743 3.17871C15.2254 4.09816 13.8887 6.30538 13.8887 10.4287C13.8887 14.5515 15.2254 16.7593 16.8743 17.6787C17.1531 17.4137 17.4209 17.1382 17.6676 16.8432ZM6.11092 10.4287C6.11092 6.30593 4.77425 4.09816 3.12536 3.17927C2.8451 3.44213 2.58021 3.72092 2.33203 4.01427C4.00425 4.75093 4.99981 7.06871 4.99981 10.4287C4.99981 13.7887 4.00425 16.1065 2.33203 16.8432C2.57925 17.1382 2.84648 17.4137 3.12536 17.6787C4.7737 16.7593 6.11092 14.5515 6.11092 10.4287Z" fill="#B3BEC4"/>
<path d="M2.82871 6.07494C2.69705 6.07494 2.57482 6.06383 2.46705 6.04383C2.32221 6.01672 2.19407 5.93318 2.11083 5.8116C2.06961 5.75139 2.04065 5.68366 2.02561 5.61227C2.01057 5.54087 2.00973 5.46722 2.02316 5.3955C2.03658 5.32378 2.064 5.25541 2.10385 5.19429C2.14369 5.13317 2.19519 5.0805 2.25539 5.03928C2.37698 4.95604 2.52665 4.9245 2.67149 4.95161C2.91038 4.99439 4.16649 4.95494 4.42038 3.68717C4.44933 3.5427 4.53449 3.41565 4.65712 3.33396C4.71784 3.29352 4.78593 3.26543 4.8575 3.2513C4.92908 3.23717 5.00273 3.23727 5.07427 3.25161C5.1458 3.26595 5.21381 3.29423 5.27441 3.33485C5.33502 3.37547 5.38703 3.42763 5.42747 3.48835C5.46792 3.54907 5.496 3.61716 5.51014 3.68873C5.52427 3.76031 5.52416 3.83397 5.50982 3.9055C5.18593 5.52328 3.76593 6.07494 2.82871 6.07494ZM3.77316 8.2755C3.47871 8.2755 3.24427 8.09605 3.22982 7.79828C3.21538 7.49217 3.45205 7.29217 3.75871 7.27772C3.75871 7.27772 5.18316 7.25828 5.90816 6.00328C5.94491 5.94044 5.99374 5.88549 6.05182 5.84161C6.10991 5.79773 6.17611 5.76577 6.2466 5.7476C6.3171 5.72942 6.39049 5.72537 6.46256 5.73569C6.53462 5.74601 6.60393 5.77049 6.66649 5.80772C6.93205 5.96105 7.02316 6.30439 6.86927 6.5705C5.84093 8.35161 3.78205 8.2755 3.77316 8.2755ZM4.99982 11.1405C4.59205 11.1405 4.21427 11.0655 3.92871 10.9305C3.79551 10.8674 3.69282 10.754 3.64323 10.6153C3.59364 10.4765 3.60121 10.3237 3.66427 10.1905C3.72733 10.0573 3.84072 9.95461 3.9795 9.90502C4.11828 9.85542 4.27107 9.86299 4.40427 9.92605C4.86538 10.1444 6.02982 10.0588 6.47649 9.36383C6.51592 9.30244 6.56706 9.24941 6.62699 9.20778C6.68691 9.16616 6.75445 9.13674 6.82575 9.12121C6.89704 9.10568 6.9707 9.10435 7.04251 9.11728C7.11432 9.13022 7.18288 9.15718 7.24427 9.19661C7.30566 9.23604 7.35869 9.28718 7.40031 9.34711C7.44194 9.40703 7.47136 9.47457 7.48689 9.54587C7.50242 9.61716 7.50375 9.69082 7.49082 9.76263C7.47788 9.83444 7.45092 9.903 7.41149 9.96439C6.87593 10.7983 5.86927 11.1405 4.99982 11.1405ZM5.64482 14.2099C4.78149 14.2099 3.98093 13.8216 3.46371 13.3899C3.40765 13.3433 3.36132 13.286 3.32739 13.2214C3.29346 13.1568 3.27259 13.0861 3.26596 13.0135C3.25933 12.9408 3.26708 12.8676 3.28876 12.7979C3.31044 12.7282 3.34563 12.6635 3.39232 12.6074C3.43902 12.5514 3.49629 12.5051 3.56089 12.4711C3.62548 12.4372 3.69613 12.4163 3.76879 12.4097C3.84145 12.4031 3.91471 12.4108 3.98437 12.4325C4.05404 12.4542 4.11876 12.4894 4.17482 12.5361C4.2826 12.6266 5.25927 13.4061 6.27593 12.9722C6.34313 12.9437 6.41527 12.9287 6.48825 12.9281C6.56124 12.9275 6.63362 12.9413 6.70128 12.9686C6.76894 12.996 6.83054 13.0364 6.88258 13.0876C6.93461 13.1388 6.97606 13.1997 7.00455 13.2669C7.03303 13.3341 7.04801 13.4062 7.04862 13.4792C7.04923 13.5522 7.03545 13.6246 7.00808 13.6922C6.98072 13.7599 6.94029 13.8215 6.88912 13.8735C6.83794 13.9256 6.77702 13.967 6.70982 13.9955C6.37284 14.1378 6.01063 14.2107 5.64482 14.2099ZM5.41649 17.0949H5.40093C4.00982 17.0949 2.80149 16.2227 2.32649 15.3683C2.17705 15.1005 2.27427 14.7883 2.54205 14.6394C2.81038 14.4899 3.14871 14.6005 3.2976 14.8683C3.56649 15.3522 4.40649 16.0538 5.43149 16.0822C5.73816 16.0911 5.97982 16.2977 5.97149 16.6038C5.96316 16.9049 5.71649 17.0949 5.41649 17.0949ZM15.1043 17.1994C15.022 17.1994 14.9408 17.1812 14.8664 17.146C14.792 17.1109 14.7264 17.0596 14.6742 16.996C14.6221 16.9324 14.5847 16.8579 14.5649 16.7781C14.545 16.6983 14.5431 16.615 14.5593 16.5344C14.9282 14.6888 16.7226 14.2288 17.6026 14.3961C17.7473 14.4233 17.8753 14.5069 17.9585 14.6284C18.0416 14.75 18.0731 14.8996 18.0459 15.0444C18.0329 15.1163 18.0057 15.1848 17.9659 15.2461C17.9262 15.3074 17.8746 15.3602 17.8143 15.4014C17.754 15.4427 17.6861 15.4715 17.6146 15.4863C17.5431 15.5011 17.4693 15.5016 17.3976 15.4877C17.1615 15.4433 15.9032 15.4838 15.6493 16.7522C15.6242 16.8783 15.5562 16.9917 15.4568 17.0733C15.3574 17.1549 15.2328 17.1994 15.1043 17.1994ZM13.6798 14.6994C13.5823 14.6995 13.4865 14.6738 13.402 14.6251C13.3175 14.5763 13.2474 14.5061 13.1986 14.4216C13.1499 14.3371 13.1243 14.2413 13.1244 14.1438C13.1245 14.0462 13.1504 13.9504 13.1993 13.8661C14.2282 12.0849 15.4126 12.0305 16.1959 11.9944L16.2576 11.9916C16.4048 11.9845 16.5488 12.0362 16.6579 12.1353C16.7669 12.2344 16.8322 12.3727 16.8393 12.5199C16.8463 12.6671 16.7947 12.8111 16.6956 12.9202C16.5965 13.0293 16.4581 13.0945 16.3109 13.1016L16.247 13.1044C15.5782 13.1355 14.8865 13.1666 14.1615 14.4216C14.1127 14.5061 14.0425 14.5763 13.9579 14.6251C13.8734 14.6739 13.7774 14.6995 13.6798 14.6994ZM13.1243 11.3311C13.0245 11.3311 12.9267 11.3042 12.8409 11.2533C12.7552 11.2024 12.6847 11.1294 12.6369 11.0418C12.5892 10.9543 12.5659 10.8555 12.5695 10.7558C12.5732 10.6562 12.6036 10.5593 12.6576 10.4755C13.4437 9.25161 15.2443 9.08605 16.1398 9.50994C16.2722 9.57341 16.3741 9.68672 16.4232 9.8251C16.4723 9.96348 16.4647 10.1157 16.4019 10.2484C16.3391 10.3812 16.2264 10.4837 16.0882 10.5335C15.9501 10.5833 15.7979 10.5765 15.6648 10.5144C15.2043 10.2961 14.0393 10.3816 13.5915 11.0766C13.5411 11.1547 13.4719 11.2189 13.3903 11.2634C13.3087 11.3078 13.2172 11.3311 13.1243 11.3311ZM16.2493 8.03272C16.1193 8.03266 15.9935 7.98706 15.8937 7.90383C15.7859 7.81383 14.8093 7.03772 13.7932 7.46772C13.6589 7.51814 13.5104 7.51475 13.3785 7.45826C13.2467 7.40176 13.1418 7.29653 13.0858 7.16454C13.0297 7.03254 13.0268 6.88399 13.0777 6.7499C13.1285 6.61581 13.2292 6.50655 13.3587 6.44494C14.5915 5.92161 15.8782 6.44439 16.6054 7.0505C16.6931 7.12363 16.7561 7.222 16.7859 7.33222C16.8157 7.44245 16.8108 7.55918 16.7719 7.66652C16.7329 7.77387 16.6619 7.86661 16.5684 7.93214C16.4749 7.99766 16.3635 8.03278 16.2493 8.03272ZM17.257 5.84494C17.1579 5.84505 17.0606 5.81862 16.9751 5.76841C16.8896 5.7182 16.8191 5.64603 16.7709 5.55939C16.502 5.07494 15.662 4.37994 14.637 4.35161C14.3298 4.34328 14.0887 4.0705 14.0965 3.76328C14.1059 3.46217 14.3526 3.20605 14.652 3.20605H14.6676C16.0593 3.20605 17.2676 4.14717 17.742 5.00161C17.8139 5.13183 17.8315 5.28512 17.791 5.42823C17.7506 5.57133 17.6553 5.69272 17.5259 5.76605C17.4445 5.81489 17.3519 5.84206 17.257 5.84494Z" fill="#DD2E44"/>
</g>
<defs>
<clipPath id="clip0_23_18">
<rect width="20" height="20" fill="white" transform="translate(0 0.428711)"/>
</clipPath>
</defs>
</svg>
