<svg width="128" height="128" viewBox="0 0 128 128" fill="none" xmlns="http://www.w3.org/2000/svg">
<g clip-path="url(#clip0_147_5)">
<path d="M63.9893 0.0400391C28.7193 0.0400391 0.0292969 28.73 0.0292969 64C0.0292969 99.28 28.7193 127.97 63.9893 127.97C99.2593 127.97 127.959 99.28 127.959 64C127.969 28.73 99.2593 0.0400391 63.9893 0.0400391Z" fill="#E0E0E0"/>
<mask id="mask0_147_5" style="mask-type:luminance" maskUnits="userSpaceOnUse" x="0" y="0" width="128" height="128">
<path d="M63.9893 0.0400391C28.7193 0.0400391 0.0292969 28.73 0.0292969 64C0.0292969 99.28 28.7193 127.97 63.9893 127.97C99.2593 127.97 127.959 99.28 127.959 64C127.969 28.73 99.2593 0.0400391 63.9893 0.0400391Z" fill="white"/>
</mask>
<g mask="url(#mask0_147_5)">
<mask id="mask1_147_5" style="mask-type:luminance" maskUnits="userSpaceOnUse" x="-5" y="-5" width="138" height="138">
<path d="M132.019 64.0005C132.019 101.57 101.559 132.02 63.9888 132.02C26.4288 132.02 -4.03125 101.56 -4.03125 64.0005C-4.03125 26.4305 26.4188 -4.01953 63.9888 -4.01953C101.569 -4.01953 132.019 26.4305 132.019 64.0005" fill="white"/>
</mask>
<g mask="url(#mask1_147_5)">
<path d="M118.458 23.3902C118.098 23.3902 117.728 23.2802 117.428 23.0602C114.758 21.2002 111.958 22.1302 111.828 22.1702C110.888 22.4902 109.838 21.9902 109.508 21.0502C109.178 20.1002 109.668 19.0602 110.608 18.7302C110.768 18.6702 113.978 17.5502 117.538 19.0002C119.358 15.6102 122.548 14.4202 122.698 14.3602C123.648 14.0202 124.698 14.5102 125.028 15.4602C125.368 16.4002 124.898 17.4402 123.948 17.7902C123.838 17.8402 121.078 18.9202 120.218 22.0502C120.058 22.6202 119.638 23.0802 119.078 23.2902C118.878 23.3602 118.678 23.3902 118.458 23.3902ZM121.808 32.6402C121.438 32.6402 121.078 32.5302 120.768 32.3102C118.108 30.4502 115.298 31.3802 115.188 31.4202C114.248 31.7402 113.198 31.2502 112.868 30.3002C112.538 29.3502 113.008 28.3202 113.958 27.9802C114.118 27.9302 117.328 26.8002 120.888 28.2502C122.708 24.8602 125.888 23.6702 126.048 23.6102C126.998 23.2702 128.048 23.7602 128.388 24.7102C128.728 25.6502 128.248 26.6902 127.308 27.0402C127.158 27.1002 124.438 28.1802 123.588 31.3002C123.428 31.8702 123.008 32.3302 122.448 32.5402C122.228 32.6102 122.018 32.6402 121.808 32.6402ZM122.048 41.9402C121.858 41.9402 121.668 41.9102 121.478 41.8602C120.918 41.6702 120.478 41.2302 120.308 40.6502C119.348 37.5402 116.488 36.5302 116.458 36.5202C116.231 36.4455 116.021 36.3267 115.839 36.1707C115.658 36.0146 115.509 35.8243 115.402 35.6107C115.294 35.3971 115.229 35.1643 115.212 34.9257C115.194 34.6871 115.223 34.4474 115.298 34.2202C115.608 33.2602 116.638 32.7402 117.598 33.0502C117.758 33.1002 120.978 34.1902 122.898 37.5202C126.418 35.9702 129.658 36.9802 129.818 37.0402C130.778 37.3502 131.308 38.3802 130.988 39.3402C130.678 40.3002 129.658 40.8302 128.698 40.5102C128.558 40.4702 125.738 39.6402 123.138 41.5902C122.818 41.8202 122.438 41.9402 122.048 41.9402ZM118.998 51.3002C118.609 51.2968 118.231 51.1701 117.918 50.9383C117.606 50.7065 117.375 50.3816 117.258 50.0102C116.298 46.9002 113.518 45.9102 113.398 45.8702C112.458 45.5402 111.938 44.5202 112.258 43.5702C112.578 42.6202 113.598 42.1002 114.548 42.4102C114.708 42.4602 117.938 43.5502 119.848 46.8802C123.368 45.3302 126.608 46.3502 126.778 46.4002C127.728 46.7102 128.258 47.7502 127.938 48.7002C127.628 49.6602 126.608 50.1902 125.658 49.8702C125.508 49.8302 122.688 49.0102 120.098 50.9502C119.778 51.1702 119.388 51.3002 118.998 51.3002ZM119.828 62.6202C119.198 62.6202 118.568 62.2902 118.248 61.7002C118.168 61.5702 116.648 59.0602 113.428 58.7202C112.838 58.6602 112.318 58.3202 112.028 57.8002C111.748 57.2802 111.718 56.6602 111.978 56.1202C113.378 53.1702 111.968 50.4902 111.948 50.4702C111.448 49.5902 111.768 48.4702 112.648 47.9902C113.538 47.4902 114.648 47.8102 115.128 48.6902C115.208 48.8402 116.848 51.8302 116.018 55.5602C119.648 56.8002 121.348 59.7502 121.428 59.9002C121.918 60.7802 121.608 61.8902 120.728 62.3802C120.438 62.5502 120.118 62.6202 119.828 62.6202ZM111.238 67.4302C110.608 67.4302 109.988 67.1002 109.658 66.5102C109.568 66.3802 108.058 63.8702 104.838 63.5302C104.548 63.4959 104.271 63.3939 104.027 63.2323C103.784 63.0708 103.582 62.8542 103.438 62.6002C103.148 62.0902 103.128 61.4502 103.388 60.9302C104.788 57.9802 103.378 55.3002 103.368 55.2802C102.868 54.4102 103.178 53.2802 104.068 52.8002C104.948 52.3002 106.058 52.6202 106.548 53.4902C106.638 53.6402 108.268 56.6202 107.428 60.3702C111.058 61.6102 112.758 64.5602 112.838 64.7102C113.328 65.5902 113.018 66.6902 112.138 67.1902C111.858 67.3602 111.548 67.4302 111.238 67.4302ZM102.668 72.2502C102.038 72.2502 101.408 71.9202 101.068 71.3302C100.998 71.2002 99.4884 68.6802 96.2684 68.3502C95.6784 68.2902 95.1484 67.9402 94.8584 67.4302C94.5684 66.9102 94.5484 66.2802 94.8084 65.7502C96.2084 62.8002 94.7884 60.1202 94.7784 60.1002C94.2784 59.2202 94.5984 58.1002 95.4784 57.6202C96.3584 57.1302 97.4784 57.4402 97.9584 58.3202C98.0384 58.4702 99.6784 61.4502 98.8384 65.2002C102.478 66.4402 104.168 69.3902 104.258 69.5302C104.748 70.4102 104.428 71.5202 103.558 72.0202C103.268 72.1802 102.958 72.2502 102.668 72.2502ZM94.5884 76.8302C94.0084 76.8302 93.4384 76.5502 93.0784 76.0402C93.0084 75.9302 91.2784 73.5402 88.0284 73.4802C87.4384 73.4702 86.8884 73.1802 86.5484 72.6802C86.2184 72.1902 86.1484 71.5702 86.3484 71.0102C87.4984 67.9502 85.8584 65.4102 85.8384 65.3902C85.2684 64.5502 85.4884 63.4102 86.3284 62.8602C87.1584 62.2902 88.2984 62.5102 88.8684 63.3402C88.9684 63.4802 90.8384 66.3102 90.3284 70.1202C94.0584 71.0402 95.9984 73.8302 96.0984 73.9802C96.6684 74.8102 96.4584 75.9402 95.6284 76.5102C95.2884 76.7302 94.9284 76.8302 94.5884 76.8302ZM86.4384 82.3602C85.8584 82.3602 85.2884 82.0902 84.9284 81.5702C84.8484 81.4402 83.1184 79.0702 79.8884 79.0102C79.2884 79.0002 78.7384 78.7002 78.4084 78.2102C78.0684 77.7202 77.9984 77.1002 78.2084 76.5402C79.3484 73.4902 77.7084 70.9402 77.6884 70.9102C77.5542 70.712 77.4604 70.4892 77.4123 70.2547C77.3643 70.0202 77.363 69.7785 77.4085 69.5435C77.454 69.3085 77.5455 69.0848 77.6776 68.8851C77.8097 68.6855 77.9799 68.5139 78.1784 68.3802C79.0084 67.8202 80.1584 68.0302 80.7084 68.8702C80.8084 69.0002 82.6984 71.8502 82.1784 75.6502C85.9084 76.5702 87.8484 79.3702 87.9484 79.5002C88.5084 80.3402 88.2984 81.4802 87.4584 82.0302C87.1629 82.2473 86.8051 82.3631 86.4384 82.3602ZM78.2984 87.8902C77.7184 87.8902 77.1484 87.6202 76.7984 87.1002C76.7084 86.9702 74.9784 84.6102 71.7484 84.5502C71.1584 84.5402 70.6084 84.2402 70.2684 83.7602C69.9284 83.2602 69.8584 82.6402 70.0684 82.0902C71.2184 79.0402 69.5684 76.4902 69.5584 76.4602C68.9884 75.6202 69.2084 74.5002 70.0484 73.9302C70.4483 73.6607 70.9384 73.56 71.4121 73.6499C71.8859 73.7397 72.305 74.013 72.5784 74.4102C72.6784 74.5502 74.5584 77.3902 74.0384 81.1902C77.7684 82.1102 79.7084 84.9102 79.8084 85.0502C80.3784 85.8802 80.1584 87.0102 79.3184 87.5802C79.0084 87.7802 78.6584 87.8902 78.2984 87.8902ZM65.4584 91.6302C65.1984 91.6302 64.9184 91.5702 64.6684 91.4602C64.1384 91.2002 63.7584 90.7002 63.6684 90.1202C63.1184 86.9102 60.4884 85.5702 60.3684 85.5102C59.4684 85.0602 59.0884 83.9702 59.5384 83.0802C59.9784 82.1702 61.0584 81.8002 61.9584 82.2202C62.1184 82.2902 65.1684 83.7902 66.6384 87.3402C70.3384 86.2502 73.4184 87.6902 73.5684 87.7602C74.4784 88.1902 74.8684 89.2802 74.4284 90.1902C73.9984 91.0902 72.9184 91.4802 72.0084 91.0602C71.8784 91.0002 69.1984 89.8102 66.3584 91.4002C66.0684 91.5502 65.7684 91.6302 65.4584 91.6302ZM61.2184 100.51C60.9484 100.51 60.6784 100.46 60.4384 100.34C59.8984 100.08 59.5184 99.5902 59.4284 99.0102C58.8784 95.8002 56.2484 94.4502 56.1284 94.3902C55.9144 94.2838 55.7233 94.1363 55.5663 93.9561C55.4092 93.776 55.2892 93.5666 55.213 93.34C55.1369 93.1134 55.1061 92.8741 55.1225 92.6356C55.1388 92.3971 55.202 92.1642 55.3084 91.9502C55.7384 91.0502 56.8184 90.6702 57.7284 91.1102C57.8784 91.1802 60.9384 92.6802 62.4084 96.2302C66.0784 95.1402 69.1784 96.5802 69.3284 96.6502C70.2484 97.0802 70.6284 98.1702 70.1984 99.0802C69.7684 99.9902 68.6784 100.38 67.7784 99.9502C67.6384 99.9002 64.9584 98.7002 62.1284 100.29C61.8468 100.434 61.5349 100.51 61.2184 100.51ZM56.9784 109.39C56.7084 109.39 56.4384 109.33 56.1884 109.21C55.6584 108.96 55.2784 108.46 55.1684 107.87C54.6284 104.67 51.9884 103.32 51.8884 103.27C51.6735 103.165 51.4815 103.018 51.3234 102.838C51.1653 102.658 51.0442 102.449 50.9671 102.222C50.89 101.996 50.8584 101.756 50.8741 101.517C50.8897 101.278 50.9524 101.045 51.0584 100.83C51.4984 99.9402 52.5784 99.5502 53.4784 99.9902C53.6284 100.07 56.6884 101.56 58.1584 105.11C61.8484 104.03 64.9384 105.46 65.0884 105.54C65.5247 105.747 65.8609 106.119 66.0232 106.574C66.1854 107.028 66.1603 107.529 65.9534 107.965C65.7466 108.401 65.3748 108.738 64.9201 108.9C64.4653 109.062 63.9647 109.037 63.5284 108.83C63.3984 108.77 60.7084 107.59 57.8784 109.17C57.6012 109.317 57.292 109.392 56.9784 109.39ZM55.9984 118.67C55.5384 118.67 55.0884 118.49 54.7384 118.17C52.3584 115.93 49.3884 116.46 49.3484 116.47C48.3584 116.67 47.3984 116.03 47.1984 115.05C46.9984 114.06 47.6384 113.1 48.6284 112.9C48.7984 112.87 52.1384 112.22 55.4484 114.17C57.7284 111.09 61.0684 110.37 61.2284 110.34C61.7003 110.249 62.1891 110.348 62.589 110.614C62.9889 110.881 63.2676 111.294 63.3649 111.765C63.4622 112.236 63.3702 112.726 63.1088 113.129C62.8475 113.532 62.4378 113.817 61.9684 113.92C61.8284 113.95 58.9584 114.62 57.6584 117.59C57.5187 117.914 57.2867 118.189 56.9914 118.381C56.6961 118.573 56.3507 118.673 55.9984 118.67ZM57.9484 128.31C57.4984 128.31 57.0384 128.13 56.6984 127.82C54.3184 125.58 51.3384 126.11 51.3084 126.12C50.3184 126.32 49.3584 125.68 49.1584 124.69C48.9584 123.7 49.5884 122.73 50.5884 122.54C50.7484 122.51 54.0984 121.86 57.4084 123.81C59.6884 120.73 63.0184 120.02 63.1884 119.98C63.6645 119.883 64.1595 119.98 64.5646 120.248C64.9697 120.516 65.2516 120.934 65.3484 121.41C65.4452 121.886 65.3489 122.381 65.0808 122.786C64.8126 123.191 64.3945 123.473 63.9184 123.57C63.7484 123.6 60.9084 124.29 59.6184 127.23C59.3784 127.78 58.8884 128.17 58.3084 128.29C58.1984 128.3 58.0784 128.31 57.9484 128.31ZM59.9184 137.95C59.4484 137.95 59.0084 137.77 58.6584 137.45C56.2784 135.21 53.3084 135.74 53.2684 135.75C52.2884 135.94 51.3284 135.31 51.1284 134.32C50.9284 133.33 51.5584 132.37 52.5484 132.17C52.7184 132.14 56.0684 131.49 59.3684 133.44C61.6584 130.36 64.9884 129.65 65.1584 129.61C66.1384 129.42 67.1084 130.05 67.3084 131.04C67.4984 132.03 66.8784 132.98 65.8884 133.2C65.7384 133.23 62.8784 133.9 61.5784 136.86C61.3484 137.41 60.8484 137.8 60.2684 137.92C60.1584 137.95 60.0284 137.95 59.9184 137.95ZM9.13842 96.6802C8.83842 96.6802 8.54842 96.6202 8.27842 96.4602C8.12842 96.3802 5.14842 94.7202 3.85842 91.1102C0.118424 92.0002 -2.89158 90.4102 -3.04158 90.3302C-3.46557 90.0991 -3.78057 89.7092 -3.91743 89.2461C-4.05429 88.7831 -4.00184 88.2846 -3.77158 87.8602C-3.29158 86.9702 -2.20158 86.6402 -1.31158 87.1202C-1.20158 87.1802 1.44842 88.5102 4.34842 87.0702C4.87842 86.8002 5.49842 86.8202 6.02842 87.1002C6.54842 87.3902 6.89842 87.9002 6.96842 88.4902C7.34842 91.7202 9.91842 93.2002 10.0184 93.2502C10.8884 93.7502 11.2084 94.8602 10.7284 95.7302C10.3884 96.3402 9.76842 96.6802 9.13842 96.6802ZM13.8184 88.0302C13.5184 88.0302 13.2284 87.9502 12.9484 87.8102C12.7984 87.7302 9.81842 86.0802 8.53842 82.4702C4.80842 83.3702 1.78842 81.7802 1.63842 81.6902C1.42762 81.5766 1.24137 81.4225 1.09043 81.2366C0.93949 81.0507 0.82684 80.8368 0.758976 80.6072C0.691113 80.3776 0.66938 80.1368 0.69503 79.8988C0.72068 79.6607 0.793206 79.4301 0.908424 79.2202C1.37842 78.3302 2.47842 78.0002 3.36842 78.4802C3.49842 78.5402 6.12842 79.8702 9.01842 78.4302C9.55843 78.1602 10.1784 78.1802 10.6984 78.4602C11.2284 78.7402 11.5784 79.2602 11.6484 79.8502C12.0284 83.0802 14.5884 84.5602 14.6984 84.6202C15.5684 85.1202 15.8884 86.2302 15.4084 87.1002C15.0784 87.6902 14.4584 88.0302 13.8184 88.0302ZM18.5084 79.3802C18.2084 79.3802 17.9184 79.3002 17.6384 79.1602C17.4884 79.0802 14.5084 77.4302 13.2284 73.8102C9.48842 74.7002 6.47842 73.1102 6.32842 73.0402C6.11819 72.926 5.93252 72.7716 5.78203 72.5856C5.63154 72.3997 5.51918 72.1859 5.45138 71.9565C5.38358 71.7271 5.36167 71.4866 5.3869 71.2487C5.41213 71.0108 5.48401 70.7802 5.59842 70.5702C6.06842 69.6802 7.16842 69.3602 8.05842 69.8302C8.17842 69.8902 10.8184 71.2202 13.7084 69.7802C14.2484 69.5202 14.8684 69.5302 15.3884 69.8102C15.9184 70.0902 16.2684 70.6102 16.3384 71.1902C16.7184 74.4202 19.2784 75.9002 19.3884 75.9602C20.2484 76.4502 20.5784 77.5602 20.0984 78.4302C19.7684 79.0402 19.1484 79.3802 18.5084 79.3802ZM23.1984 70.7302C22.8984 70.7302 22.6084 70.6502 22.3284 70.5102C22.1784 70.4302 19.1984 68.7802 17.9184 65.1602C14.1784 66.0602 11.1684 64.4702 11.0184 64.3902C10.1284 63.9002 9.80842 62.7902 10.2884 61.9102C10.7584 61.0302 11.8584 60.7002 12.7484 61.1702C12.8684 61.2402 15.5084 62.5602 18.3984 61.1302C18.9384 60.8602 19.5584 60.8802 20.0784 61.1602C20.6084 61.4302 20.9584 61.9602 21.0284 62.5402C21.4084 65.7702 23.9684 67.2502 24.0784 67.3102C24.9384 67.8002 25.2684 68.9002 24.7884 69.7802C24.4584 70.3902 23.8284 70.7302 23.1984 70.7302ZM25.7784 58.8002C25.7184 58.8002 25.6484 58.8002 25.5884 58.7902C25.4184 58.7802 22.0284 58.3902 19.4684 55.5402C16.3584 57.7902 12.9584 57.4702 12.8084 57.4602C11.8084 57.3502 11.0784 56.4602 11.1884 55.4502C11.2984 54.4502 12.1984 53.7402 13.1884 53.8202C13.3484 53.8402 16.2584 54.0402 18.3984 51.6102C18.7884 51.1602 19.3684 50.9302 19.9584 50.9902C20.5384 51.0502 21.0684 51.3902 21.3484 51.9102C22.9484 54.7502 25.8684 55.1302 25.9984 55.1502C26.9884 55.2702 27.7084 56.1802 27.6084 57.1702C27.4784 58.1102 26.6984 58.8002 25.7784 58.8002ZM26.7984 49.0102C26.7384 49.0102 26.6684 49.0002 26.6084 49.0002C26.4384 48.9802 23.0484 48.5902 20.4884 45.7402C17.3684 48.0002 13.9784 47.6702 13.8284 47.6602C12.8284 47.5502 12.0984 46.6502 12.1984 45.6502C12.3084 44.6602 13.1884 43.9502 14.1984 44.0202C14.3484 44.0402 17.2684 44.2502 19.4084 41.8102C19.7884 41.3702 20.3684 41.1302 20.9684 41.2002C21.5484 41.2702 22.0784 41.6002 22.3584 42.1202C23.9484 44.9602 26.8784 45.3502 27.0084 45.3602C27.4872 45.4204 27.9236 45.6653 28.2243 46.0427C28.5251 46.42 28.6665 46.9 28.6184 47.3802C28.4984 48.3202 27.7184 49.0102 26.7984 49.0102ZM27.8284 39.2302C27.7684 39.2302 27.6984 39.2302 27.6384 39.2202C27.4684 39.2002 24.0784 38.8102 21.5084 35.9602C18.4084 38.2202 15.0184 37.9002 14.8484 37.8802C13.8484 37.7702 13.1184 36.8802 13.2184 35.8702C13.3284 34.8802 14.2084 34.1602 15.2084 34.2402C15.3584 34.2602 18.2884 34.4702 20.4284 32.0402C20.8184 31.5902 21.3984 31.3602 21.9884 31.4302C22.5684 31.4902 23.0984 31.8402 23.3784 32.3502C24.9684 35.1902 27.8984 35.5802 28.0284 35.5902C28.5072 35.6504 28.9436 35.8953 29.2443 36.2727C29.5451 36.65 29.6865 37.13 29.6384 37.6102C29.5284 38.5402 28.7384 39.2302 27.8284 39.2302ZM29.4084 31.7602C29.1584 31.7602 28.8984 31.7002 28.6584 31.5902C28.4984 31.5302 25.4284 30.0702 23.8984 26.5402C20.2484 27.6902 17.1284 26.3002 16.9684 26.2202C16.0484 25.8002 15.6484 24.7202 16.0684 23.8002C16.4884 22.8902 17.5584 22.4902 18.4784 22.9002C18.6184 22.9502 21.3184 24.0902 24.1184 22.4802C24.3695 22.3277 24.6548 22.2405 24.9482 22.2265C25.2417 22.2125 25.534 22.2722 25.7984 22.4002C26.3384 22.6402 26.7284 23.1402 26.8284 23.7202C27.4284 26.9202 30.0784 28.2302 30.1884 28.2802C31.0984 28.7102 31.4884 29.7902 31.0684 30.7002C30.7484 31.3702 30.0984 31.7602 29.4084 31.7602ZM33.5184 22.8202C33.2684 22.8202 33.0084 22.7702 32.7584 22.6502C32.6084 22.5902 29.5284 21.1302 28.0084 17.6102C24.3384 18.7502 21.2284 17.3602 21.0784 17.3002C20.8604 17.2004 20.6641 17.0587 20.5008 16.8831C20.3376 16.7075 20.2105 16.5014 20.127 16.2767C20.0434 16.0519 20.0049 15.8129 20.0137 15.5733C20.0226 15.3337 20.0785 15.0982 20.1784 14.8802C20.5884 13.9702 21.6684 13.5702 22.5884 13.9802C22.7384 14.0402 25.4284 15.1802 28.2284 13.5602C28.7384 13.2602 29.3684 13.2302 29.9084 13.4802C30.4484 13.7202 30.8284 14.2202 30.9384 14.8002C31.5284 18.0002 34.1784 19.3102 34.2984 19.3602C35.1984 19.7902 35.5884 20.8702 35.1684 21.7802C34.8584 22.4302 34.1984 22.8202 33.5184 22.8202ZM37.6284 13.8702C37.3784 13.8702 37.1084 13.8202 36.8684 13.7102C36.7184 13.6402 33.6384 12.1802 32.1184 8.66017C28.4584 9.80017 25.3384 8.41017 25.1784 8.34017C24.7408 8.13569 24.4011 7.7673 24.2327 7.31453C24.0643 6.86176 24.0807 6.36094 24.2784 5.92017C24.6984 5.00017 25.7784 4.60017 26.6884 5.01017C26.8484 5.08017 29.5384 6.21017 32.3384 4.59017C32.8484 4.29017 33.4784 4.26017 34.0084 4.51017C34.5584 4.76017 34.9384 5.25017 35.0384 5.84017C35.6384 9.03017 38.2884 10.3402 38.4084 10.3902C39.3084 10.8202 39.6984 11.9102 39.2684 12.8102C38.9684 13.4802 38.3084 13.8702 37.6284 13.8702ZM40.0284 8.19017C39.4384 8.19017 38.8484 7.89017 38.4984 7.36017C38.3984 7.22017 36.5784 4.35017 37.1684 0.550171C33.4584 -0.439829 31.5684 -3.27983 31.4784 -3.41983C30.9284 -4.25983 31.1684 -5.38983 32.0184 -5.93983C32.2173 -6.07082 32.44 -6.16129 32.6739 -6.20606C32.9078 -6.25082 33.1482 -6.249 33.3813 -6.20069C33.6145 -6.15239 33.8358 -6.05855 34.0327 -5.92455C34.2295 -5.79056 34.398 -5.61904 34.5284 -5.41983C34.6184 -5.27983 36.2984 -2.88983 39.5184 -2.76983C40.1184 -2.74983 40.6584 -2.42983 40.9884 -1.93983C41.3084 -1.44983 41.3684 -0.819829 41.1584 -0.269829C39.9584 2.76017 41.5384 5.34017 41.5584 5.36017C42.1084 6.21017 41.8684 7.34017 41.0184 7.89017C40.7184 8.09017 40.3684 8.19017 40.0284 8.19017ZM48.2784 2.82017C47.6784 2.82017 47.0984 2.52017 46.7484 1.99017C46.6484 1.85017 44.8284 -1.02983 45.4184 -4.81983C41.7084 -5.80983 39.8184 -8.63983 39.7284 -8.78983C39.1784 -9.63983 39.4184 -10.7698 40.2584 -11.3198C41.0984 -11.8698 42.2384 -11.6398 42.7784 -10.7898C42.8684 -10.6598 44.5484 -8.26983 47.7684 -8.13983C48.3584 -8.11983 48.9084 -7.80983 49.2284 -7.31983C49.5584 -6.82983 49.6184 -6.19983 49.3984 -5.64983C48.1984 -2.60983 49.7884 -0.0298283 49.7984 0.000171661C50.3484 0.840172 50.1184 1.98017 49.2684 2.52017C48.9684 2.72017 48.6184 2.82017 48.2784 2.82017ZM55.5384 -2.24983C54.8484 -2.24983 54.1884 -2.64983 53.8784 -3.32983C53.8184 -3.47983 52.4484 -6.59983 53.6084 -10.2598C50.0984 -11.8098 48.6684 -14.8998 48.5984 -15.0498C48.1884 -15.9698 48.5984 -17.0598 49.5184 -17.4698C50.4384 -17.8798 51.5084 -17.4698 51.9284 -16.5598C51.9884 -16.4198 53.2784 -13.7798 56.4484 -13.1698C57.0384 -13.0598 57.5284 -12.6798 57.7684 -12.1298C58.0084 -11.5798 57.9784 -10.9598 57.6784 -10.4598C56.0284 -7.64983 57.1684 -4.92983 57.2084 -4.80983C57.6084 -3.88983 57.1884 -2.80983 56.2684 -2.40983C56.0384 -2.30983 55.7884 -2.24983 55.5384 -2.24983ZM63.9984 -4.77983C63.1984 -4.77983 62.4684 -5.30983 62.2484 -6.11983C62.2084 -6.27983 61.3284 -9.56983 63.0484 -12.9998C59.8184 -15.0798 58.8784 -18.3498 58.8384 -18.5098C58.5684 -19.4798 59.1484 -20.4898 60.1184 -20.7598C61.0784 -21.0298 62.0884 -20.4498 62.3584 -19.4898C62.3984 -19.3598 63.2684 -16.5398 66.3084 -15.4498C66.5838 -15.3489 66.831 -15.1836 67.0294 -14.9677C67.2279 -14.7518 67.3718 -14.4915 67.4491 -14.2087C67.5264 -13.9258 67.5349 -13.6285 67.4739 -13.3417C67.4129 -13.0548 67.2842 -12.7868 67.0984 -12.5598C65.0284 -10.0498 65.7584 -7.09983 65.7684 -7.07983C66.0284 -6.10983 65.4584 -5.09983 64.4884 -4.82983C64.3284 -4.79983 64.1684 -4.77983 63.9984 -4.77983Z" fill="#ED6C30"/>
</g>
</g>
</g>
<defs>
<clipPath id="clip0_147_5">
<rect width="128" height="128" fill="white"/>
</clipPath>
</defs>
</svg>
