<svg width="current" height="current" viewBox="0 0 20 20" fill="none" xmlns="http://www.w3.org/2000/svg">
<path d="M13.3333 1.66699C13.5374 1.66702 13.7344 1.74196 13.887 1.87759C14.0395 2.01322 14.137 2.20012 14.1608 2.40283L14.1667 2.50033V3.33366H15C15.6377 3.33362 16.2513 3.57726 16.7152 4.01473C17.1792 4.45219 17.4584 5.05041 17.4958 5.68699L17.5 5.83366V15.8337C17.5 16.4713 17.2564 17.0849 16.8189 17.5489C16.3815 18.0128 15.7832 18.2921 15.1467 18.3295L15 18.3337H5C4.36232 18.3337 3.74874 18.0901 3.28478 17.6526C2.82083 17.2151 2.54158 16.6169 2.50417 15.9803L2.5 15.8337V5.83366C2.49996 5.19598 2.7436 4.5824 3.18107 4.11844C3.61854 3.65449 4.21676 3.37524 4.85333 3.33783L5 3.33366H5.83333V2.50033C5.83357 2.28793 5.9149 2.08363 6.06071 1.92919C6.20651 1.77474 6.40579 1.6818 6.61783 1.66935C6.82986 1.6569 7.03865 1.72589 7.20153 1.86221C7.3644 1.99854 7.46908 2.19191 7.49417 2.40283L7.5 2.50033V3.33366H12.5V2.50033C12.5 2.27931 12.5878 2.06735 12.7441 1.91107C12.9004 1.75479 13.1123 1.66699 13.3333 1.66699ZM15.8333 7.50033H4.16667V15.5212C4.16667 16.1087 4.48833 16.5928 4.9025 16.6595L5 16.667H15C15.4275 16.667 15.78 16.2253 15.8275 15.6545L15.8333 15.5212V7.50033Z" fill="currentColor"/>
<path d="M9.99973 10C10.2038 10 10.4008 10.075 10.5534 10.2106C10.7059 10.3462 10.8033 10.5331 10.8272 10.7358L10.8331 10.8333V13.3333C10.8328 13.5457 10.7515 13.75 10.6057 13.9045C10.4599 14.0589 10.2606 14.1519 10.0486 14.1643C9.83653 14.1768 9.62775 14.1078 9.46487 13.9714C9.30199 13.8351 9.19731 13.6417 9.17223 13.4308L9.16639 13.3333V11.6667C8.95399 11.6664 8.7497 11.5851 8.59525 11.4393C8.44081 11.2935 8.34787 11.0942 8.33542 10.8822C8.32297 10.6701 8.39196 10.4614 8.52828 10.2985C8.66461 10.1356 8.85798 10.0309 9.06889 10.0058L9.16639 10H9.99973Z" fill="currentColor"/>
</svg>
