<svg width="24" height="24" viewBox="0 0 24 24" fill="none" xmlns="http://www.w3.org/2000/svg">
<path d="M11.9994 21C13.9963 20.9997 15.9364 20.3353 17.5143 19.1114C19.0921 17.8874 20.2181 16.1735 20.715 14.2394C21.2119 12.3053 21.0514 10.2608 20.2588 8.42795C19.4663 6.59506 18.0866 5.0778 16.3371 4.11506C14.5876 3.15231 12.5676 2.79875 10.5951 3.11004C8.62259 3.42132 6.80963 4.37978 5.44164 5.83452C4.07364 7.28925 3.22831 9.15764 3.03871 11.1455C2.84912 13.1334 3.32604 15.1279 4.39439 16.815L2.99939 21L7.18439 19.605C8.62397 20.5187 10.2944 21.0026 11.9994 21Z" stroke="currentColor" stroke-width="2" stroke-linecap="round" stroke-linejoin="round"/>
</svg>
