<svg width="24" height="24" viewBox="0 0 24 24" fill="none" xmlns="http://www.w3.org/2000/svg">
<path fill-rule="evenodd" clip-rule="evenodd" d="M11.943 1.25H12.057C14.366 1.25 16.175 1.25 17.587 1.44C19.031 1.634 20.171 2.04 21.066 2.934C21.961 3.829 22.366 4.969 22.56 6.414C22.75 7.825 22.75 9.634 22.75 11.943V12.057C22.75 14.366 22.75 16.175 22.56 17.587C22.366 19.031 21.96 20.171 21.066 21.066C20.171 21.961 19.031 22.366 17.586 22.56C16.175 22.75 14.366 22.75 12.057 22.75H11.943C9.634 22.75 7.825 22.75 6.413 22.56C4.969 22.366 3.829 21.96 2.934 21.066C2.039 20.171 1.634 19.031 1.44 17.586C1.25 16.175 1.25 14.366 1.25 12.057V11.943C1.25 9.634 1.25 7.825 1.44 6.413C1.634 4.969 2.04 3.829 2.934 2.934C3.829 2.039 4.969 1.634 6.414 1.44C7.825 1.25 9.634 1.25 11.943 1.25ZM6.613 2.926C5.335 3.098 4.564 3.426 3.995 3.995C3.425 4.565 3.098 5.335 2.926 6.614C2.752 7.914 2.75 9.622 2.75 12C2.75 14.378 2.752 16.086 2.926 17.386C3.098 18.665 3.426 19.436 3.995 20.006C4.565 20.575 5.335 20.902 6.614 21.074C7.914 21.248 9.622 21.25 12 21.25C14.378 21.25 16.086 21.248 17.386 21.074C18.665 20.902 19.436 20.574 20.006 20.005C20.575 19.435 20.902 18.665 21.074 17.386C21.248 16.086 21.25 14.378 21.25 12C21.25 9.622 21.248 7.914 21.074 6.614C20.902 5.335 20.574 4.564 20.005 3.994C19.435 3.425 18.665 3.098 17.386 2.926C16.086 2.752 14.378 2.75 12 2.75C9.622 2.75 7.913 2.752 6.613 2.926ZM10.518 6.456C10.5894 6.52393 10.6468 6.60527 10.6867 6.69537C10.7267 6.78547 10.7485 6.88257 10.7509 6.98111C10.7533 7.07965 10.7363 7.1777 10.7008 7.26965C10.6653 7.36161 10.612 7.44566 10.544 7.517L7.687 10.517C7.61695 10.5905 7.53271 10.649 7.43937 10.689C7.34603 10.729 7.24554 10.7497 7.144 10.7497C7.04246 10.7497 6.94197 10.729 6.84863 10.689C6.75529 10.649 6.67105 10.5905 6.601 10.517L5.458 9.317C5.38716 9.24628 5.3312 9.1621 5.2934 9.06942C5.25561 8.97674 5.23675 8.87743 5.23793 8.77734C5.23912 8.67726 5.26032 8.57842 5.3003 8.48666C5.34028 8.3949 5.39822 8.31207 5.47071 8.24305C5.5432 8.17403 5.62878 8.12022 5.72239 8.08478C5.816 8.04935 5.91576 8.03302 6.01578 8.03674C6.1158 8.04046 6.21407 8.06417 6.30479 8.10646C6.39551 8.14876 6.47684 8.20878 6.544 8.283L7.144 8.913L9.458 6.483C9.59515 6.33905 9.78385 6.25544 9.98262 6.25057C10.1814 6.24569 10.374 6.31894 10.518 6.456ZM12.25 9C12.25 8.80109 12.329 8.61032 12.4697 8.46967C12.6103 8.32902 12.8011 8.25 13 8.25H18C18.1989 8.25 18.3897 8.32902 18.5303 8.46967C18.671 8.61032 18.75 8.80109 18.75 9C18.75 9.19891 18.671 9.38968 18.5303 9.53033C18.3897 9.67098 18.1989 9.75 18 9.75H13C12.8011 9.75 12.6103 9.67098 12.4697 9.53033C12.329 9.38968 12.25 9.19891 12.25 9ZM10.517 13.457C10.817 13.743 10.829 14.217 10.543 14.517L7.686 17.517C7.61595 17.5905 7.53171 17.649 7.43837 17.689C7.34503 17.729 7.24454 17.7497 7.143 17.7497C7.04146 17.7497 6.94097 17.729 6.84763 17.689C6.75429 17.649 6.67005 17.5905 6.6 17.517L5.457 16.317C5.38616 16.2463 5.3302 16.1621 5.2924 16.0694C5.25461 15.9767 5.23575 15.8774 5.23693 15.7773C5.23812 15.6773 5.25932 15.5784 5.2993 15.4867C5.33928 15.3949 5.39722 15.3121 5.46971 15.243C5.5422 15.174 5.62778 15.1202 5.72139 15.0848C5.815 15.0494 5.91476 15.033 6.01478 15.0367C6.1148 15.0405 6.21307 15.0642 6.30379 15.1065C6.39451 15.1488 6.47584 15.2088 6.543 15.283L7.143 15.913L9.457 13.483C9.59415 13.339 9.78285 13.2554 9.98162 13.2506C10.1804 13.2457 10.373 13.3199 10.517 13.457ZM12.25 16C12.25 15.8011 12.329 15.6103 12.4697 15.4697C12.6103 15.329 12.8011 15.25 13 15.25H18C18.1989 15.25 18.3897 15.329 18.5303 15.4697C18.671 15.6103 18.75 15.8011 18.75 16C18.75 16.1989 18.671 16.3897 18.5303 16.5303C18.3897 16.671 18.1989 16.75 18 16.75H13C12.8011 16.75 12.6103 16.671 12.4697 16.5303C12.329 16.3897 12.25 16.1989 12.25 16Z" fill="currentColor"/>
</svg>
