<svg width="24" height="24" viewBox="0 0 24 24" fill="none" xmlns="http://www.w3.org/2000/svg">
<path d="M4.44063 15.0597C4.72188 15.3406 5.10313 15.4983 5.50063 15.4983C5.89813 15.4983 6.27938 15.3406 6.56063 15.0597L12.0006 9.61966L17.4406 15.0597C17.725 15.3246 18.1011 15.4689 18.4897 15.462C18.8783 15.4552 19.2491 15.2977 19.5239 15.0229C19.7987 14.7481 19.9561 14.3773 19.963 13.9887C19.9698 13.6001 19.8256 13.224 19.5606 12.9397L13.0606 6.43966C12.7794 6.15876 12.3981 6.00098 12.0006 6.00098C11.6031 6.00098 11.2219 6.15876 10.9406 6.43966L4.44063 12.9397C4.15973 13.2209 4.00195 13.6022 4.00195 13.9997C4.00195 14.3972 4.15973 14.7784 4.44063 15.0597Z" fill="currentColor"/>
</svg>
