<svg width="24" height="24" viewBox="0 0 24 24" fill="none" xmlns="http://www.w3.org/2000/svg">
<path d="M4.44063 8.93966C4.72188 8.65876 5.10313 8.50098 5.50063 8.50098C5.89813 8.50098 6.27938 8.65876 6.56063 8.93966L12.0006 14.3797L17.4406 8.93966C17.725 8.6747 18.1011 8.53045 18.4897 8.53731C18.8783 8.54416 19.2491 8.70159 19.5239 8.97641C19.7987 9.25124 19.9561 9.62201 19.963 10.0106C19.9698 10.3992 19.8256 10.7753 19.5606 11.0597L13.0606 17.5597C12.7794 17.8406 12.3981 17.9983 12.0006 17.9983C11.6031 17.9983 11.2219 17.8406 10.9406 17.5597L4.44063 11.0597C4.15973 10.7784 4.00195 10.3972 4.00195 9.99966C4.00195 9.60216 4.15973 9.22091 4.44063 8.93966Z" fill="currentColor"/>
</svg>
