<svg width="current" height="current" viewBox="0 0 20 20" fill="none" xmlns="http://www.w3.org/2000/svg">
<g clip-path="url(#clip0_77_25)">
<path fill-rule="evenodd" clip-rule="evenodd" d="M14.9991 1.66699C15.4196 1.66686 15.8245 1.82566 16.1329 2.11157C16.4412 2.39748 16.63 2.78936 16.6616 3.20866L16.6657 3.33366V16.667C16.6659 17.0875 16.5071 17.4925 16.2212 17.8008C15.9353 18.1091 15.5434 18.298 15.1241 18.3295L14.9991 18.3337H4.99908C4.5786 18.3338 4.1736 18.175 3.86529 17.8891C3.55697 17.6032 3.36811 17.2113 3.33658 16.792L3.33241 16.667V15.8337C3.12001 15.8334 2.91572 15.7521 2.76127 15.6063C2.60682 15.4605 2.51388 15.2612 2.50143 15.0492C2.48899 14.8371 2.55797 14.6283 2.6943 14.4655C2.83062 14.3026 3.024 14.1979 3.23491 14.1728L3.33241 14.167V12.5003C3.12001 12.5001 2.91572 12.4188 2.76127 12.273C2.60682 12.1271 2.51388 11.9279 2.50143 11.7158C2.48899 11.5038 2.55797 11.295 2.6943 11.1321C2.83062 10.9693 3.024 10.8646 3.23491 10.8395L3.33241 10.8337V9.16699C3.12001 9.16676 2.91572 9.08543 2.76127 8.93962C2.60682 8.79381 2.51388 8.59453 2.50143 8.3825C2.48899 8.17046 2.55797 7.96168 2.6943 7.7988C2.83062 7.63592 3.024 7.53125 3.23491 7.50616L3.33241 7.50033V5.83366C3.12001 5.83342 2.91572 5.75209 2.76127 5.60629C2.60682 5.46048 2.51388 5.2612 2.50143 5.04916C2.48899 4.83713 2.55797 4.62834 2.6943 4.46547C2.83062 4.30259 3.024 4.19791 3.23491 4.17283L3.33241 4.16699V3.33366C3.33228 2.91318 3.49108 2.50819 3.77699 2.19987C4.0629 1.89155 4.45478 1.7027 4.87408 1.67116L4.99908 1.66699H14.9991ZM14.9991 3.33366H4.99908V16.667H14.9991V3.33366ZM12.9157 5.00033C13.2265 5.00034 13.5261 5.11609 13.7561 5.32501C13.9861 5.53392 14.1301 5.82103 14.1599 6.13033L14.1657 6.25033V7.91699C14.1657 8.22773 14.05 8.52732 13.8411 8.75734C13.6321 8.98736 13.345 9.13133 13.0357 9.16116L12.9157 9.16699H7.08241C6.77167 9.16698 6.47208 9.05123 6.24206 8.84231C6.01204 8.63339 5.86807 8.34629 5.83824 8.03699L5.83241 7.91699V6.25033C5.83242 5.93959 5.94818 5.64 6.15709 5.40998C6.36601 5.17995 6.65311 5.03599 6.96241 5.00616L7.08241 5.00033H12.9157ZM12.4991 6.66699H7.49908V7.50033H12.4991V6.66699Z" fill="currentColor"/>
</g>
<defs>
<clipPath id="clip0_77_25">
<rect width="20" height="20" fill="white"/>
</clipPath>
</defs>
</svg>
