<svg width="20" height="20" viewBox="0 0 20 20" fill="none" xmlns="http://www.w3.org/2000/svg">
<path d="M18.3332 18.3337L14.9998 15.0003H6.6665C6.20817 15.0003 5.81595 14.8373 5.48984 14.5112C5.16373 14.185 5.00039 13.7925 4.99984 13.3337V12.5003H14.1665C14.6248 12.5003 15.0173 12.3373 15.344 12.0112C15.6707 11.685 15.8337 11.2925 15.8332 10.8337V5.00033H16.6665C17.1248 5.00033 17.5173 5.16366 17.844 5.49033C18.1707 5.81699 18.3337 6.20921 18.3332 6.66699V18.3337ZM3.33317 10.1462L4.31234 9.16699H12.4998V3.33366H3.33317V10.1462ZM1.6665 14.167V3.33366C1.6665 2.87533 1.82984 2.4831 2.1565 2.15699C2.48317 1.83088 2.87539 1.66755 3.33317 1.66699H12.4998C12.9582 1.66699 13.3507 1.83033 13.6773 2.15699C14.004 2.48366 14.1671 2.87588 14.1665 3.33366V9.16699C14.1665 9.62533 14.0034 10.0178 13.6773 10.3445C13.3512 10.6712 12.9587 10.8342 12.4998 10.8337H4.99984L1.6665 14.167Z" fill="currentColor"/>
</svg>
