<svg width="20" height="20" viewBox="0 0 20 20" fill="none" xmlns="http://www.w3.org/2000/svg">
<g clip-path="url(#clip0_117_22)">
<path d="M17.8447 5.55566H2.15577C1.87877 5.55566 1.61311 5.6657 1.41724 5.86157C1.22137 6.05745 1.11133 6.3231 1.11133 6.60011V16.7334C1.11133 17.0104 1.22137 17.2761 1.41724 17.472C1.61311 17.6678 1.87877 17.7779 2.15577 17.7779H17.8447C18.1217 17.7779 18.3873 17.6678 18.5832 17.472C18.7791 17.2761 18.8891 17.0104 18.8891 16.7334V6.60011C18.8891 6.3231 18.7791 6.05745 18.5832 5.86157C18.3873 5.6657 18.1217 5.55566 17.8447 5.55566ZM17.778 16.6668H2.22244V6.66678H17.778V16.6668Z" fill="black"/>
<path d="M16.7445 1.66688C16.7445 1.51954 16.6859 1.37823 16.5817 1.27405C16.4776 1.16986 16.3363 1.11133 16.1889 1.11133H3.96669C3.81935 1.11133 3.67804 1.16986 3.57385 1.27405C3.46966 1.37823 3.41113 1.51954 3.41113 1.66688V2.22244H16.7445V1.66688Z" fill="black"/>
<path d="M17.8446 3.88856C17.8446 3.74122 17.7861 3.59991 17.6819 3.49573C17.5777 3.39154 17.4364 3.33301 17.2891 3.33301H2.84462C2.69728 3.33301 2.55597 3.39154 2.45178 3.49573C2.34759 3.59991 2.28906 3.74122 2.28906 3.88856V4.44412H17.8446V3.88856Z" fill="black"/>
<path d="M7.12211 14.8834C7.27608 14.9832 7.45528 15.0372 7.63878 15.0389C7.77098 15.0383 7.90158 15.0099 8.02211 14.9556L13.4499 12.5334C13.6177 12.4604 13.7605 12.3401 13.8608 12.1871C13.9612 12.0341 14.0146 11.8552 14.0146 11.6722C14.0146 11.4893 13.9612 11.3103 13.8608 11.1574C13.7605 11.0044 13.6177 10.884 13.4499 10.8111L8.02211 8.38891C7.87848 8.32512 7.7212 8.29819 7.56453 8.31054C7.40785 8.3229 7.25674 8.37415 7.12488 8.45967C6.99302 8.54518 6.88459 8.66225 6.80941 8.80026C6.73423 8.93827 6.69468 9.09286 6.69434 9.25002V14.0945C6.69462 14.2511 6.73386 14.4053 6.80854 14.543C6.88322 14.6807 6.99098 14.7977 7.12211 14.8834ZM7.47211 9.25002C7.47194 9.22212 7.47902 9.19465 7.49265 9.1703C7.50629 9.14595 7.52601 9.12557 7.54989 9.11113C7.57897 9.10309 7.6097 9.10309 7.63878 9.11113C7.66078 9.10664 7.68345 9.10664 7.70545 9.11113L13.1332 11.5278C13.1638 11.5403 13.1899 11.562 13.2078 11.5898C13.2257 11.6176 13.2345 11.6503 13.2332 11.6834C13.2342 11.7156 13.2251 11.7474 13.2072 11.7743C13.1892 11.8012 13.1634 11.8218 13.1332 11.8334L7.70545 14.2556C7.6818 14.2692 7.65497 14.2764 7.62767 14.2764C7.60036 14.2764 7.57354 14.2692 7.54989 14.2556C7.52671 14.2404 7.50753 14.2198 7.49399 14.1957C7.48045 14.1715 7.47295 14.1444 7.47211 14.1167V9.25002Z" fill="black"/>
</g>
<defs>
<clipPath id="clip0_117_22">
<rect width="20" height="20" fill="white"/>
</clipPath>
</defs>
</svg>
