<svg width="20" height="20" viewBox="0 0 20 20" fill="none" xmlns="http://www.w3.org/2000/svg">
<path d="M16.0592 7.18492C16.0592 3.75559 13.3674 0.975586 10.0469 0.975586C6.72646 0.975586 4.03467 3.75562 4.03467 7.18492C4.03467 8.7357 4.58518 10.1536 5.49529 11.2418H5.49525L6.81033 13.6257C7.15381 14.2616 7.28131 14.6722 7.85689 14.6722H12.1449C12.7206 14.6722 12.8899 14.2398 13.1915 13.6257L14.5986 11.2418H14.5985C15.5087 10.1536 16.0592 8.7357 16.0592 7.18492Z" fill="#FFE46A"/>
<path d="M4.40623 7.94113C4.40623 4.39734 7.07725 1.46844 10.5447 0.998984C10.3718 0.983529 10.1982 0.975722 10.0245 0.975586C6.704 0.975586 4.01221 3.75562 4.01221 7.18492C4.01221 8.31344 4.30396 9.37141 4.81346 10.2833C4.54979 9.55094 4.40623 8.76254 4.40623 7.94113Z" fill="#FFF0B7"/>
<path d="M16.059 7.19836C16.059 5.97004 15.7136 4.82512 15.1177 3.86133C15.2453 4.36462 15.3098 4.88181 15.3098 5.40102C15.3098 9.48125 11.3591 12.8042 6.42383 12.9388L6.81016 13.6391C7.15363 14.2751 7.28113 14.6857 7.85672 14.6857H12.1448C12.7204 14.6857 12.8897 14.2533 13.1913 13.6391L14.5984 11.2553H14.5984C15.5085 10.1671 16.059 8.74914 16.059 7.19836Z" fill="#FFDA00"/>
<path d="M12.5745 8.2502C12.5803 8.24508 12.5861 8.2404 12.5919 8.23477C12.7008 8.13059 12.7904 7.96442 12.7154 7.81028C12.4076 7.1784 11.4666 6.97794 10.7809 7.18719C10.7462 7.19777 10.7125 7.20929 10.6798 7.22176C10.3063 7.00368 9.84252 6.95126 9.42975 7.08235C9.38087 7.09779 9.33291 7.11597 9.28607 7.1368C9.0601 7.00477 8.79576 6.93891 8.5324 6.96438C7.98115 7.0177 7.50213 7.46477 7.40721 8.00938L7.36377 8.03626C7.73943 8.64333 8.72822 10.3828 8.79158 11.1313C8.87146 12.0756 8.79166 14.6388 8.79084 14.6646L9.25936 14.6794C9.26271 14.5731 9.34084 12.0631 9.25861 11.0918C9.22197 10.6587 8.95697 9.9684 8.47096 9.04016C8.24412 8.60688 8.02389 8.22649 7.89057 8.00204C7.98275 7.70337 8.26596 7.4611 8.57752 7.43098C8.6724 7.4218 8.76865 7.43243 8.86076 7.45946C8.82611 7.50384 8.79576 7.55143 8.77014 7.60157C8.61205 7.91153 8.67811 8.30071 8.92377 8.50688C9.06928 8.62895 9.28068 8.67391 9.47561 8.62407C9.65713 8.57766 9.79744 8.45837 9.86053 8.29676C9.91721 8.15153 9.9124 7.98387 9.84619 7.79848C9.80785 7.69183 9.75459 7.59116 9.68799 7.49946C9.8649 7.46537 10.0475 7.47535 10.2196 7.52852C10.1526 7.60567 10.1014 7.69153 10.0677 7.78462C9.99564 7.98387 10.0275 8.22067 10.1508 8.40266C10.2571 8.55954 10.4186 8.65278 10.5941 8.65856C10.6 8.65877 10.6058 8.65887 10.6117 8.65887C10.7654 8.65887 10.9113 8.59278 11.0242 8.47149C11.1569 8.32903 11.2245 8.13126 11.2049 7.94243C11.1924 7.82239 11.1497 7.70497 11.081 7.59606C11.5589 7.50923 12.0265 7.67071 12.2287 7.91583C12.1067 8.11895 11.856 8.54512 11.5968 9.04024C11.1108 9.96852 10.8457 10.6588 10.8091 11.0918C10.7269 12.0632 10.8051 14.5731 10.8084 14.6795L11.2769 14.6647C11.2761 14.6389 11.1963 12.0758 11.2762 11.1314C11.3331 10.4575 12.1399 8.98114 12.5745 8.2502ZM9.42381 8.12633C9.41291 8.1543 9.37182 8.16676 9.35947 8.16993C9.31064 8.18239 9.25537 8.17329 9.22502 8.14786C9.14631 8.0818 9.1292 7.92915 9.18764 7.81458C9.20681 7.77768 9.23114 7.74371 9.2599 7.71368C9.32283 7.78508 9.37287 7.86704 9.40471 7.95618C9.43068 8.02883 9.43764 8.09091 9.42381 8.12633ZM10.6812 8.15188C10.6675 8.16653 10.6396 8.19063 10.6094 8.19001C10.5769 8.18895 10.5512 8.15801 10.5388 8.13966C10.5 8.08235 10.4875 8.00188 10.5085 7.94399C10.5326 7.87719 10.5792 7.82255 10.6336 7.77856C10.6941 7.84696 10.7313 7.92051 10.7386 7.99083C10.7442 8.04438 10.7211 8.10907 10.6812 8.15188Z" fill="#FAAF63"/>
<path d="M12.3412 15.7305H7.73047C7.47266 15.7305 7.26172 15.9414 7.26172 16.1992V16.471C7.26172 16.7288 7.47266 16.9397 7.73047 16.9397H9.21961C8.77559 17.1049 8.30676 17.4977 8.30676 17.9532V18.1361C8.66312 18.5366 8.995 19.233 9.62715 19.233H10.4822C10.9802 19.233 11.3339 18.6954 11.7649 18.1361V17.9532C11.7649 17.4977 11.3176 17.1049 10.8841 16.9397H12.3412C12.599 16.9397 12.81 16.7288 12.81 16.471V16.1992C12.81 15.9414 12.599 15.7305 12.3412 15.7305Z" fill="#6B83A5"/>
<path d="M12.6722 15.7307H7.39941C7.1416 15.7307 6.93066 15.5198 6.93066 15.262V14.9902C6.93066 14.7324 7.1416 14.5215 7.39941 14.5215H12.6722C12.93 14.5215 13.1409 14.7324 13.1409 14.9902V15.262C13.1409 15.5198 12.93 15.7307 12.6722 15.7307ZM12.3985 17.6805V17.4088C12.3985 17.151 12.1875 16.94 11.9297 16.94H8.14187C7.88406 16.94 7.67312 17.151 7.67312 17.4088V17.6805C7.67312 17.9384 7.88406 18.1493 8.14187 18.1493H11.9297C12.1875 18.1493 12.3985 17.9384 12.3985 17.6805Z" fill="#ABBDDB"/>
</svg>
