<svg width="24" height="24" viewBox="0 0 24 24" fill="none" xmlns="http://www.w3.org/2000/svg">
<g clip-path="url(#clip0_203_10)">
<path d="M8.52934 16.7325C8.52934 16.7325 8.50538 16.7616 8.45865 16.8142C8.41271 16.8677 8.34282 16.9435 8.25423 17.0405C8.07577 17.233 7.81515 17.5024 7.49129 17.8145C7.31696 17.9826 7.14037 18.1483 6.96156 18.3116C6.77157 18.486 6.56785 18.6665 6.3557 18.8518L5.69823 19.42C5.47309 19.6122 5.24593 19.809 5.01526 20.0023L4.32901 20.5815C4.10279 20.7726 3.87648 20.9571 3.65945 21.1375L3.33906 21.4026L3.02963 21.6538C2.82807 21.8167 2.6394 21.9725 2.4616 22.1127L1.97804 22.497L1.60243 22.7905L1.35882 22.9776L1.27201 23.0431C1.2005 23.0972 1.11046 23.1206 1.02169 23.1082C0.932922 23.0958 0.8527 23.0487 0.798665 22.9772C0.705524 22.8539 0.709977 22.6873 0.798665 22.5698L0.864243 22.483L1.05127 22.2394L1.34476 21.8638L1.72909 21.3802C1.86929 21.2024 2.0251 21.0137 2.18795 20.8122L2.43915 20.5027L2.70427 20.1823C2.88474 19.9653 3.06915 19.739 3.26031 19.5128L3.83945 18.8265C4.03276 18.5959 4.22959 18.3687 4.42182 18.1436L4.98995 17.4861C5.17529 17.2739 5.3558 17.0702 5.53018 16.8802C5.6935 16.7014 5.85922 16.5248 6.02729 16.3505C6.33943 16.0266 6.60882 15.766 6.80134 15.5876C6.89827 15.499 6.97412 15.4291 7.02756 15.3831C7.0802 15.3364 7.10926 15.3125 7.10926 15.3125C7.5391 14.9581 8.17487 15.0193 8.52924 15.4491C8.84176 15.8282 8.83079 16.3674 8.52934 16.7325Z" fill="#96A9B2"/>
<path d="M23.1694 9.42819L22.862 9.73564C21.8513 10.7463 20.2128 10.7463 19.2022 9.73564C19.1899 9.72329 19.1752 9.71349 19.1591 9.7068C19.143 9.70012 19.1257 9.69667 19.1083 9.69667C19.0908 9.69667 19.0736 9.70012 19.0575 9.7068C19.0413 9.71349 19.0267 9.72329 19.0144 9.73564L15.1599 13.5901C14.9138 13.8363 14.8846 14.2215 15.0824 14.5081C16.0206 15.8681 15.8852 17.7452 14.6752 18.9552L13.1701 20.4603C12.3621 21.2682 11.0521 21.2682 10.2442 20.4603L3.38138 13.5974C2.57339 12.7895 2.57339 11.4795 3.38138 10.6715L4.88644 9.16644C6.09652 7.95636 7.97358 7.82098 9.33352 8.75923C9.62011 8.95695 10.0054 8.92784 10.2516 8.68166L14.106 4.82722C14.1184 4.8149 14.1282 4.80026 14.1348 4.78414C14.1415 4.76803 14.145 4.75075 14.145 4.7333C14.145 4.71586 14.1415 4.69858 14.1348 4.68247C14.1282 4.66635 14.1184 4.65171 14.106 4.63939C13.0954 3.62877 13.0954 1.99025 14.106 0.979625L14.4135 0.672172C14.7973 0.288313 15.4197 0.288313 15.8036 0.672172L23.1695 8.03806C23.5533 8.42192 23.5533 9.04433 23.1694 9.42819Z" fill="#CA0000"/>
<path d="M11.8261 10.8539C11.7246 10.854 11.6239 10.8341 11.5301 10.7952C11.4362 10.7563 11.351 10.6993 11.2792 10.6273C10.9772 10.3253 10.9772 9.83558 11.2792 9.53352L14.3514 6.46138C14.6534 6.15936 15.1432 6.15936 15.4452 6.46138C15.7472 6.76344 15.7472 7.25314 15.4452 7.5552L12.3731 10.6273C12.3013 10.6993 12.2161 10.7563 12.1222 10.7952C12.0284 10.8341 11.9277 10.854 11.8261 10.8539Z" fill="#750000"/>
</g>
<defs>
<clipPath id="clip0_203_10">
<rect width="24" height="24" fill="white"/>
</clipPath>
</defs>
</svg>
