<svg width="current" height="current" viewBox="0 0 20 20" fill="none" xmlns="http://www.w3.org/2000/svg">
<path d="M15.2083 2.49707C15.8161 2.49707 16.399 2.73851 16.8288 3.16828C17.2586 3.59805 17.5 4.18095 17.5 4.78874V15.2054C17.5 15.8132 17.2586 16.3961 16.8288 16.8259C16.399 17.2556 15.8161 17.4971 15.2083 17.4971H4.79167C4.49072 17.4971 4.19272 17.4378 3.91468 17.3226C3.63665 17.2075 3.38401 17.0387 3.17121 16.8259C2.95841 16.6131 2.78961 16.3604 2.67444 16.0824C2.55928 15.8043 2.5 15.5063 2.5 15.2054V4.78874C2.5 4.18095 2.74144 3.59805 3.17121 3.16828C3.60098 2.73851 4.18388 2.49707 4.79167 2.49707H15.2083ZM15.2083 3.74707H4.79167C4.21667 3.74707 3.75 4.21374 3.75 4.78874V15.2054C3.75 15.7804 4.21667 16.2471 4.79167 16.2471H15.2083C15.7833 16.2471 16.25 15.7804 16.25 15.2054V4.78874C16.25 4.21374 15.7833 3.74707 15.2083 3.74707ZM6.45833 7.5004C6.775 7.5004 7.03583 7.73457 7.0775 8.03874L7.08333 8.1229V13.5454C7.08245 13.7106 7.01622 13.8687 6.8991 13.9852C6.78199 14.1017 6.62352 14.1671 6.45833 14.1671C6.30768 14.1671 6.16206 14.1128 6.04829 14.014C5.93452 13.9153 5.86026 13.7787 5.83917 13.6296L5.83333 13.5446V8.12207C5.83333 7.77874 6.11333 7.5004 6.45833 7.5004ZM13.5417 5.83374C13.8583 5.83374 14.12 6.0629 14.1608 6.35874L14.1667 6.44207V13.5596C14.1656 13.6406 14.1485 13.7205 14.1166 13.7949C14.0846 13.8693 14.0382 13.9367 13.9802 13.9932C13.9221 14.0497 13.8535 14.0942 13.7783 14.1242C13.7031 14.1541 13.6227 14.169 13.5417 14.1679C13.3925 14.1694 13.2477 14.1171 13.134 14.0205C13.0202 13.9239 12.9452 13.7896 12.9225 13.6421L12.9167 13.5596V6.44124C12.9178 6.36025 12.9348 6.28028 12.9668 6.20587C12.9988 6.13147 13.0451 6.0641 13.1032 6.00761C13.1612 5.95112 13.2298 5.90662 13.305 5.87664C13.3803 5.84666 13.4607 5.83263 13.5417 5.83374ZM9.97917 9.99707C10.1261 9.99499 10.2688 10.0462 10.3809 10.1411C10.4931 10.2361 10.567 10.3685 10.5892 10.5137L10.5958 10.5971L10.625 13.5529C10.6257 13.714 10.5624 13.8687 10.4492 13.9832C10.3359 14.0977 10.1819 14.1626 10.0208 14.1637C9.8739 14.1658 9.73118 14.1146 9.61905 14.0197C9.50692 13.9247 9.43296 13.7923 9.41083 13.6471L9.40417 13.5646L9.375 10.6087C9.37411 10.4475 9.43724 10.2926 9.55052 10.1779C9.6638 10.0632 9.81797 9.99817 9.97917 9.99707Z" fill="currentColor"/>
</svg>
