<svg width="current" height="current" viewBox="0 0 20 20" fill="none" xmlns="http://www.w3.org/2000/svg">
<path d="M18.75 14.0624H18.4375V4.77571L18.9461 4.66711C19.0682 4.64321 19.1843 4.59525 19.2877 4.52601C19.3911 4.45677 19.4797 4.36764 19.5482 4.26383C19.6168 4.16001 19.6641 4.04358 19.6872 3.92132C19.7103 3.79906 19.7089 3.67343 19.6829 3.55173C19.657 3.43004 19.6071 3.31472 19.5362 3.2125C19.4652 3.11029 19.3746 3.02322 19.2697 2.95637C19.1648 2.88952 19.0476 2.84423 18.9249 2.82314C18.8023 2.80205 18.6767 2.80558 18.5555 2.83352L1.05547 6.58352C0.829518 6.63227 0.629542 6.76278 0.493946 6.94998C0.358349 7.13718 0.296692 7.36788 0.320814 7.59777C0.344937 7.82766 0.453138 8.04053 0.624639 8.19551C0.796141 8.35048 1.01885 8.43664 1.25 8.43743C1.31641 8.43756 1.38266 8.43075 1.44766 8.41711L1.56328 8.39211V14.0624H1.25C1.00136 14.0624 0.762903 14.1612 0.587087 14.337C0.411272 14.5128 0.3125 14.7513 0.3125 14.9999C0.3125 15.2486 0.411272 15.487 0.587087 15.6628C0.762903 15.8387 1.00136 15.9374 1.25 15.9374H18.75C18.9986 15.9374 19.2371 15.8387 19.4129 15.6628C19.5887 15.487 19.6875 15.2486 19.6875 14.9999C19.6875 14.7513 19.5887 14.5128 19.4129 14.337C19.2371 14.1612 18.9986 14.0624 18.75 14.0624ZM3.4375 7.98977L16.5625 5.17727V14.0624H15V9.37493C15 9.12629 14.9012 8.88783 14.7254 8.71201C14.5496 8.5362 14.3111 8.43743 14.0625 8.43743H5.9375C5.68886 8.43743 5.4504 8.5362 5.27459 8.71201C5.09877 8.88783 5 9.12629 5 9.37493V14.0624H3.4375V7.98977ZM13.125 11.2499H6.875V10.3124H13.125V11.2499ZM6.875 13.1249H13.125V14.0624H6.875V13.1249Z" fill="currentColor"/>
</svg>
